<?xml version="1.0" encoding="UTF-8" standalone="no"?>
<!-- Created with Inkscape (http://www.inkscape.org/) -->

<svg
   xmlns:dc="http://purl.org/dc/elements/1.1/"
   xmlns:cc="http://creativecommons.org/ns#"
   xmlns:rdf="http://www.w3.org/1999/02/22-rdf-syntax-ns#"
   xmlns:svg="http://www.w3.org/2000/svg"
   xmlns="http://www.w3.org/2000/svg"
   xmlns:sodipodi="http://sodipodi.sourceforge.net/DTD/sodipodi-0.dtd"
   xmlns:inkscape="http://www.inkscape.org/namespaces/inkscape"
   width="744.09448819"
   height="1052.3622047"
   id="svg2"
   version="1.1"
   inkscape:version="0.48.2 r9819"
   sodipodi:docname="PAUSAS 1.svg"
   inkscape:export-filename="C:\Users\kevin\Desktop\proyectoHerramientasdeprogramacionIII-master\Pausas Activas\Analisis\REM-pausas-activas\PAUSAS1.png"
   inkscape:export-xdpi="35.39782"
   inkscape:export-ydpi="35.39782">
  <defs
     id="defs4" />
  <sodipodi:namedview
     id="base"
     pagecolor="#ffffff"
     bordercolor="#666666"
     borderopacity="1.0"
     inkscape:pageopacity="0.0"
     inkscape:pageshadow="2"
     inkscape:zoom="0.48"
     inkscape:cx="1101.0235"
     inkscape:cy="632.1543"
     inkscape:document-units="px"
     inkscape:current-layer="layer1"
     showgrid="false"
     showguides="true"
     inkscape:guide-bbox="true"
     inkscape:snap-center="true"
     inkscape:window-width="1366"
     inkscape:window-height="706"
     inkscape:window-x="-8"
     inkscape:window-y="-8"
     inkscape:window-maximized="1"
     inkscape:snap-page="true"
     inkscape:snap-bbox="true"
     inkscape:snap-grids="false"
     inkscape:snap-to-guides="false"
     inkscape:snap-midpoints="true" />
  <metadata
     id="metadata7">
    <rdf:RDF>
      <cc:Work
         rdf:about="">
        <dc:format>image/svg+xml</dc:format>
        <dc:type
           rdf:resource="http://purl.org/dc/dcmitype/StillImage" />
        <dc:title></dc:title>
      </cc:Work>
    </rdf:RDF>
  </metadata>
  <g
     inkscape:label="Layer 1"
     inkscape:groupmode="layer"
     id="layer1"
     style="display:inline">
    <flowRoot
       xml:space="preserve"
       id="flowRoot4062"
       style="font-size:40px;font-style:normal;font-weight:normal;line-height:125%;letter-spacing:0px;word-spacing:0px;fill:#000000;fill-opacity:1;stroke:none;font-family:Sans"><flowRegion
         id="flowRegion4064"><rect
           id="rect4066"
           width="155.56345"
           height="138.48941"
           x="201.09421"
           y="496.50745" /></flowRegion><flowPara
         id="flowPara4068" /></flowRoot>    <text
       xml:space="preserve"
       style="font-size:28px;font-style:normal;font-variant:normal;font-weight:normal;font-stretch:normal;text-align:start;line-height:125%;letter-spacing:0px;word-spacing:0px;text-anchor:start;fill:#000000;fill-opacity:1;stroke:none;font-family:Algerian;-inkscape-font-specification:Algerian"
       x="-41.089493"
       y="139.84979"
       id="text4220"
       sodipodi:linespacing="125%"><tspan
         sodipodi:role="line"
         id="tspan4222"
         x="-41.089493"
         y="139.84979" /></text>
    <text
       xml:space="preserve"
       style="font-size:48px;font-style:normal;font-variant:normal;font-weight:normal;font-stretch:normal;text-align:center;line-height:125%;letter-spacing:0px;word-spacing:0px;text-anchor:middle;fill:#ffffff;fill-opacity:1;stroke:none;display:inline;font-family:Microsoft Sans Serif;-inkscape-font-specification:Microsoft Sans Serif"
       x="1493.6399"
       y="200.25504"
       id="text4264-1-8"
       sodipodi:linespacing="125%"><tspan
         sodipodi:role="line"
         id="tspan4266-7-2"
         x="1493.6399"
         y="200.25504"
         style="font-size:40px;font-style:normal;font-variant:normal;font-weight:normal;font-stretch:normal;font-family:Microsoft Sans Serif;-inkscape-font-specification:Microsoft Sans Serif">Es hora de tu pausa</tspan></text>
    <text
       xml:space="preserve"
       style="font-size:17.80608559px;font-style:normal;font-variant:normal;font-weight:normal;font-stretch:normal;text-align:center;line-height:125%;letter-spacing:0px;word-spacing:0px;text-anchor:middle;fill:#ffffff;fill-opacity:1;stroke:none;display:inline;font-family:Snap ITC;-inkscape-font-specification:Snap ITC"
       x="1831.4066"
       y="91.645721"
       id="text4264-4-4"
       sodipodi:linespacing="125%"
       transform="scale(0.73369735,1.3629598)"><tspan
         sodipodi:role="line"
         id="tspan4266-0-5"
         x="1831.4066"
         y="91.645721">Pausas Activas</tspan></text>
    <text
       xml:space="preserve"
       style="font-size:48px;font-style:normal;font-variant:normal;font-weight:normal;font-stretch:normal;text-align:center;line-height:125%;letter-spacing:0px;word-spacing:0px;text-anchor:middle;fill:#ffffff;fill-opacity:1;stroke:none;display:inline;font-family:Microsoft Sans Serif;-inkscape-font-specification:Microsoft Sans Serif"
       x="1492.9536"
       y="444.6846"
       id="text4264-1-8-7"
       sodipodi:linespacing="125%"><tspan
         sodipodi:role="line"
         id="tspan4266-7-2-1"
         x="1492.9536"
         y="444.6846"
         style="font-size:40px;font-style:normal;font-variant:normal;font-weight:normal;font-stretch:normal;font-family:Microsoft Sans Serif;-inkscape-font-specification:Microsoft Sans Serif">Mostrar ejercicios</tspan></text>
    <text
       xml:space="preserve"
       style="font-size:17.80608559px;font-style:normal;font-variant:normal;font-weight:normal;font-stretch:normal;text-align:center;line-height:125%;letter-spacing:0px;word-spacing:0px;text-anchor:middle;fill:#ffffff;fill-opacity:1;stroke:none;display:inline;font-family:Snap ITC;-inkscape-font-specification:Snap ITC"
       x="2577.4983"
       y="59.959061"
       id="text4264-4-4-2"
       sodipodi:linespacing="125%"
       transform="scale(0.73369735,1.3629598)"><tspan
         sodipodi:role="line"
         id="tspan4266-0-5-1"
         x="2577.4983"
         y="59.959061">Pausas Activas</tspan></text>
    <text
       xml:space="preserve"
       style="font-size:48px;font-style:normal;font-variant:normal;font-weight:normal;font-stretch:normal;text-align:center;line-height:125%;letter-spacing:0px;word-spacing:0px;text-anchor:middle;fill:#ffffff;fill-opacity:1;stroke:none;display:inline;font-family:Microsoft Sans Serif;-inkscape-font-specification:Microsoft Sans Serif"
       x="2055.0376"
       y="154.58026"
       id="text4264-1-8-6"
       sodipodi:linespacing="125%"><tspan
         sodipodi:role="line"
         id="tspan4266-7-2-8"
         x="2055.0376"
         y="154.58026"
         style="font-size:48px;font-style:normal;font-variant:normal;font-weight:normal;font-stretch:normal;font-family:Microsoft Sans Serif;-inkscape-font-specification:Microsoft Sans Serif">Puntaje</tspan></text>
    <flowRoot
       xml:space="preserve"
       id="flowRoot3101"
       style="font-size:40px;font-style:normal;font-weight:normal;line-height:125%;letter-spacing:0px;word-spacing:0px;fill:#000000;fill-opacity:1;stroke:none;font-family:Sans"><flowRegion
         id="flowRegion3103"><rect
           id="rect3105"
           width="1528.6731"
           height="669.685"
           x="759.24774"
           y="36.639301" /></flowRegion><flowPara
         id="flowPara3107" /></flowRoot>    <g
       id="g3162"
       transform="translate(440.84479,146.50527)"
       inkscape:export-filename="C:\Users\Usuario\Desktop\PausasActivas\PausasActivas.Movil\SplashScreenImage.jpg.png"
       inkscape:export-xdpi="90"
       inkscape:export-ydpi="90">
      <rect
         y="70.161392"
         x="1.7336438e-006"
         height="806.10657"
         width="506.672"
         id="rect3111"
         style="opacity:0.96000001;fill:#00ffff;fill-opacity:1" />
      <rect
         y="736.21899"
         x="2.6013913e-014"
         height="140.049"
         width="510.36017"
         id="rect4242"
         style="opacity:0.96000001;fill:#008080;fill-opacity:0.92156863" />
      <text
         inkscape:export-ydpi="35.39782"
         inkscape:export-xdpi="35.39782"
         transform="scale(0.90091943,1.1099772)"
         sodipodi:linespacing="125%"
         id="text4264"
         y="727.40424"
         x="289.004"
         style="font-size:66.70969391px;font-style:normal;font-variant:normal;font-weight:normal;font-stretch:normal;text-align:center;line-height:125%;letter-spacing:0px;word-spacing:0px;writing-mode:lr-tb;text-anchor:middle;fill:#002b22;fill-opacity:1;stroke:none;font-family:Microsoft Sans Serif;-inkscape-font-specification:Microsoft Sans Serif"
         xml:space="preserve"><tspan
           style="font-size:66.70969391px;font-style:normal;font-variant:normal;font-weight:normal;font-stretch:normal;text-align:center;line-height:125%;writing-mode:lr-tb;text-anchor:middle;fill:#ffffff;font-family:Microsoft Sans Serif;-inkscape-font-specification:Microsoft Sans Serif"
           y="727.40424"
           x="289.004"
           id="tspan4266"
           sodipodi:role="line">Pausas Activas</tspan></text>
      <rect
         transform="scale(1,-1)"
         y="-739.3382"
         x="5.7499542"
         height="6.2384272"
         width="498.86026"
         id="rect3185-4"
         style="opacity:0.96000001;fill:#441650;fill-opacity:0.92156863;display:inline" />
      <g
         transform="matrix(4.5950464,0,0,5.5576151,40.39236,178.53881)"
         id="g3147">
        <path
           inkscape:connector-curvature="0"
           d="m 71.046,17.12 c 3.911,0 7.078,-3.167 7.078,-7.078 0,-3.889 -3.167,-7.055 -7.078,-7.055 -3.889,0 -7.055,3.166 -7.055,7.055 10e-4,3.912 3.167,7.078 7.055,7.078 z"
           id="path3133" />
        <path
           inkscape:connector-curvature="0"
           d="M 76.308,18.704 H 65.994 L 48.415,1.125 C 47.041,-0.318 44.76,-0.388 43.316,1.009 41.872,2.383 41.802,4.664 43.176,6.108 l 18.37,18.394 v 60.955 c 0,2.212 1.77,3.981 3.958,3.981 2.212,0 3.981,-1.77 3.981,-3.981 V 52.394 h 3.213 l 0.023,33.062 c 0,2.212 1.793,3.981 3.981,3.981 2.188,0 3.958,-1.77 3.958,-3.981 L 80.637,24.501 99.009,6.107 c 1.373,-1.444 1.303,-3.725 -0.141,-5.099 -1.443,-1.397 -3.725,-1.327 -5.099,0.116 l -17.461,17.58 z"
           id="path3135" />
        <path
           inkscape:connector-curvature="0"
           d="M 38.938,45.595 C 37.867,44.501 36.4,43.849 34.771,43.849 H 19.975 c -1.63,0 -3.097,0.652 -4.145,1.746 L 0.999,60.427 c -1.374,1.443 -1.327,3.725 0.116,5.099 1.443,1.374 3.749,1.327 5.099,-0.116 L 17.715,53.908 V 69.274 H 4.817 c -2.375,0 -4.284,1.909 -4.284,4.284 0,1.234 0.466,2.328 1.304,3.12 l 14.529,14.528 c 1.28,1.887 3.795,2.491 5.797,1.327 2.119,-1.21 2.817,-3.888 1.606,-5.983 l -8.289,-8.266 0.163,0.023 H 39.45 l -8.312,8.266 c -1.188,2.096 -0.489,4.772 1.606,5.983 2.002,1.164 4.541,0.559 5.821,-1.327 L 53.094,76.701 c 0.838,-0.792 1.303,-1.886 1.303,-3.12 0,-2.375 -1.908,-4.284 -4.284,-4.284 H 37.239 V 54.093 l 11.292,11.339 c 1.374,1.444 3.656,1.49 5.099,0.116 1.443,-1.373 1.49,-3.654 0.116,-5.099 L 38.938,45.595 z"
           id="path3137" />
        <path
           inkscape:connector-curvature="0"
           d="m 27.518,42.335 c 3.9,0 7.043,-3.166 7.043,-7.055 0,-3.911 -3.144,-7.055 -7.043,-7.055 -3.888,0 -7.055,3.144 -7.055,7.055 0,3.889 3.167,7.055 7.055,7.055 z"
           id="path3139" />
      </g>
    </g>
    <flowRoot
       xml:space="preserve"
       id="flowRoot3153"
       style="font-size:40px;font-style:normal;font-weight:normal;line-height:125%;letter-spacing:0px;word-spacing:0px;fill:#000000;fill-opacity:1;stroke:none;font-family:Sans"><flowRegion
         id="flowRegion3155"><rect
           id="rect3157"
           width="0"
           height="46.816887"
           x="850.84601"
           y="315.5051" /></flowRegion><flowPara
         id="flowPara3159" /></flowRoot>    <flowRoot
       xml:space="preserve"
       id="flowRoot3161"
       style="font-size:40px;font-style:normal;font-weight:normal;line-height:125%;letter-spacing:0px;word-spacing:0px;fill:#000000;fill-opacity:1;stroke:none;font-family:Sans"><flowRegion
         id="flowRegion3163"><rect
           id="rect3165"
           width="105.84687"
           height="168.94789"
           x="795.88708"
           y="221.87132" /></flowRegion><flowPara
         id="flowPara3167" /></flowRoot>    <g
       id="g3153"
       transform="translate(683.33333,118.75)"
       inkscape:export-filename="C:\Users\Usuario\Desktop\PausasActivas\PausasActivas.Movil\Background.png"
       inkscape:export-xdpi="90"
       inkscape:export-ydpi="90">
      <rect
         y="70.2873"
         x="523.2691"
         height="228.94322"
         width="198.14101"
         id="rect3163"
         style="fill:#00ffff;fill-opacity:1" />
      <g
         transform="matrix(1.6431359,0,0,1.9870133,540.18602,92.214787)"
         id="g3199">
        <path
           inkscape:connector-curvature="0"
           d="m 71.046,17.12 c 3.911,0 7.078,-3.167 7.078,-7.078 0,-3.889 -3.167,-7.055 -7.078,-7.055 -3.889,0 -7.055,3.166 -7.055,7.055 10e-4,3.912 3.167,7.078 7.055,7.078 z"
           id="path3185" />
        <path
           inkscape:connector-curvature="0"
           d="M 76.308,18.704 H 65.994 L 48.415,1.125 C 47.041,-0.318 44.76,-0.388 43.316,1.009 41.872,2.383 41.802,4.664 43.176,6.108 l 18.37,18.394 v 60.955 c 0,2.212 1.77,3.981 3.958,3.981 2.212,0 3.981,-1.77 3.981,-3.981 V 52.394 h 3.213 l 0.023,33.062 c 0,2.212 1.793,3.981 3.981,3.981 2.188,0 3.958,-1.77 3.958,-3.981 L 80.637,24.501 99.009,6.107 c 1.373,-1.444 1.303,-3.725 -0.141,-5.099 -1.443,-1.397 -3.725,-1.327 -5.099,0.116 l -17.461,17.58 z"
           id="path3187" />
        <path
           inkscape:connector-curvature="0"
           d="M 38.938,45.595 C 37.867,44.501 36.4,43.849 34.771,43.849 H 19.975 c -1.63,0 -3.097,0.652 -4.145,1.746 L 0.999,60.427 c -1.374,1.443 -1.327,3.725 0.116,5.099 1.443,1.374 3.749,1.327 5.099,-0.116 L 17.715,53.908 V 69.274 H 4.817 c -2.375,0 -4.284,1.909 -4.284,4.284 0,1.234 0.466,2.328 1.304,3.12 l 14.529,14.528 c 1.28,1.887 3.795,2.491 5.797,1.327 2.119,-1.21 2.817,-3.888 1.606,-5.983 l -8.289,-8.266 0.163,0.023 H 39.45 l -8.312,8.266 c -1.188,2.096 -0.489,4.772 1.606,5.983 2.002,1.164 4.541,0.559 5.821,-1.327 L 53.094,76.701 c 0.838,-0.792 1.303,-1.886 1.303,-3.12 0,-2.375 -1.908,-4.284 -4.284,-4.284 H 37.239 V 54.093 l 11.292,11.339 c 1.374,1.444 3.656,1.49 5.099,0.116 1.443,-1.373 1.49,-3.654 0.116,-5.099 L 38.938,45.595 z"
           id="path3189" />
        <path
           inkscape:connector-curvature="0"
           d="m 27.518,42.335 c 3.9,0 7.043,-3.166 7.043,-7.055 0,-3.911 -3.144,-7.055 -7.043,-7.055 -3.888,0 -7.055,3.144 -7.055,7.055 0,3.889 3.167,7.055 7.055,7.055 z"
           id="path3191" />
        <path
           id="path3245"
           d="M 38.938,45.595 C 37.867,44.501 36.4,43.849 34.771,43.849 H 19.975 c -1.63,0 -3.097,0.652 -4.145,1.746 L 0.999,60.427 c -1.374,1.443 -1.327,3.725 0.116,5.099 1.443,1.374 3.749,1.327 5.099,-0.116 L 17.715,53.908 V 69.274 H 4.817 c -2.375,0 -4.284,1.909 -4.284,4.284 0,1.234 0.466,2.328 1.304,3.12 l 14.529,14.528 c 1.28,1.887 3.795,2.491 5.797,1.327 2.119,-1.21 2.817,-3.888 1.606,-5.983 l -8.289,-8.266 0.163,0.023 H 39.45 l -8.312,8.266 c -1.188,2.096 -0.489,4.772 1.606,5.983 2.002,1.164 4.541,0.559 5.821,-1.327 L 53.094,76.701 c 0.838,-0.792 1.303,-1.886 1.303,-3.12 0,-2.375 -1.908,-4.284 -4.284,-4.284 H 37.239 V 54.093 l 11.292,11.339 c 1.374,1.444 3.656,1.49 5.099,0.116 1.443,-1.373 1.49,-3.654 0.116,-5.099 L 38.938,45.595 z"
           inkscape:connector-curvature="0" />
      </g>
    </g>
    <g
       id="g3145"
       transform="translate(652.08333,264.58333)"
       inkscape:export-filename="C:\Users\Usuario\Desktop\PausasActivas\PausasActivas.Movil\ApplicationIcon.png"
       inkscape:export-xdpi="90"
       inkscape:export-ydpi="90">
      <rect
         y="308.64172"
         x="521.07812"
         height="110.85241"
         width="106.78137"
         id="rect3169"
         style="fill:#00ffff" />
      <g
         transform="matrix(0.77608557,0,0,0.77608557,535.53075,339.33036)"
         id="g3235">
        <path
           inkscape:connector-curvature="0"
           d="m 71.046,17.12 c 3.911,0 7.078,-3.167 7.078,-7.078 0,-3.889 -3.167,-7.055 -7.078,-7.055 -3.889,0 -7.055,3.166 -7.055,7.055 10e-4,3.912 3.167,7.078 7.055,7.078 z"
           id="path3221" />
        <path
           inkscape:connector-curvature="0"
           d="M 76.308,18.704 H 65.994 L 48.415,1.125 C 47.041,-0.318 44.76,-0.388 43.316,1.009 41.872,2.383 41.802,4.664 43.176,6.108 l 18.37,18.394 v 60.955 c 0,2.212 1.77,3.981 3.958,3.981 2.212,0 3.981,-1.77 3.981,-3.981 V 52.394 h 3.213 l 0.023,33.062 c 0,2.212 1.793,3.981 3.981,3.981 2.188,0 3.958,-1.77 3.958,-3.981 L 80.637,24.501 99.009,6.107 c 1.373,-1.444 1.303,-3.725 -0.141,-5.099 -1.443,-1.397 -3.725,-1.327 -5.099,0.116 l -17.461,17.58 z"
           id="path3223" />
        <path
           inkscape:connector-curvature="0"
           d="M 38.938,45.595 C 37.867,44.501 36.4,43.849 34.771,43.849 H 19.975 c -1.63,0 -3.097,0.652 -4.145,1.746 L 0.999,60.427 c -1.374,1.443 -1.327,3.725 0.116,5.099 1.443,1.374 3.749,1.327 5.099,-0.116 L 17.715,53.908 V 69.274 H 4.817 c -2.375,0 -4.284,1.909 -4.284,4.284 0,1.234 0.466,2.328 1.304,3.12 l 14.529,14.528 c 1.28,1.887 3.795,2.491 5.797,1.327 2.119,-1.21 2.817,-3.888 1.606,-5.983 l -8.289,-8.266 0.163,0.023 H 39.45 l -8.312,8.266 c -1.188,2.096 -0.489,4.772 1.606,5.983 2.002,1.164 4.541,0.559 5.821,-1.327 L 53.094,76.701 c 0.838,-0.792 1.303,-1.886 1.303,-3.12 0,-2.375 -1.908,-4.284 -4.284,-4.284 H 37.239 V 54.093 l 11.292,11.339 c 1.374,1.444 3.656,1.49 5.099,0.116 1.443,-1.373 1.49,-3.654 0.116,-5.099 L 38.938,45.595 z"
           id="path3225" />
        <path
           inkscape:connector-curvature="0"
           d="m 27.518,42.335 c 3.9,0 7.043,-3.166 7.043,-7.055 0,-3.911 -3.144,-7.055 -7.043,-7.055 -3.888,0 -7.055,3.144 -7.055,7.055 0,3.889 3.167,7.055 7.055,7.055 z"
           id="path3227" />
      </g>
    </g>
    <rect
       id="rect3241"
       width="4.0710335"
       height="30.532751"
       x="858.9881"
       y="-177.08997" />
    <path
       style="fill:#cc44b1;fill-opacity:0.99607843"
       d=""
       id="path3175"
       inkscape:connector-curvature="0" />
    <path
       style="fill:#cc44b1;fill-opacity:0.99607843"
       d=""
       id="path3177"
       inkscape:connector-curvature="0" />
    <path
       style="fill:#cc44b1;fill-opacity:0.99607843"
       d=""
       id="path3179"
       inkscape:connector-curvature="0" />
    <path
       style="fill:#cc44b1;fill-opacity:0.99607843"
       d=""
       id="path3183"
       inkscape:connector-curvature="0" />
    <path
       style="fill:#cc44b1;fill-opacity:0.99607843"
       d=""
       id="path3190"
       inkscape:connector-curvature="0" />
    <path
       style="fill:#d567c0;fill-opacity:0.99607843"
       d=""
       id="path3242"
       inkscape:connector-curvature="0" />
    <path
       style="fill:#d567c0;fill-opacity:0.99607843"
       d=""
       id="path3244"
       inkscape:connector-curvature="0" />
    <path
       style="fill:#d567c0;fill-opacity:0.99607843"
       d=""
       id="path3284"
       inkscape:connector-curvature="0" />
  </g>
</svg>
