<?xml version="1.0" encoding="UTF-8" standalone="no"?>
<!-- Created with Inkscape (http://www.inkscape.org/) -->

<svg
   xmlns:dc="http://purl.org/dc/elements/1.1/"
   xmlns:cc="http://creativecommons.org/ns#"
   xmlns:rdf="http://www.w3.org/1999/02/22-rdf-syntax-ns#"
   xmlns:svg="http://www.w3.org/2000/svg"
   xmlns="http://www.w3.org/2000/svg"
   xmlns:sodipodi="http://sodipodi.sourceforge.net/DTD/sodipodi-0.dtd"
   xmlns:inkscape="http://www.inkscape.org/namespaces/inkscape"
   width="744.09448819"
   height="1052.3622047"
   id="svg2"
   version="1.1"
   inkscape:version="0.48.2 r9819"
   sodipodi:docname="PAUSAS ACTIVAS.svg"
   inkscape:export-filename="C:\Users\kevin\Desktop\Analisis\PAUSAS ACTIVAS.png"
   inkscape:export-xdpi="35.39782"
   inkscape:export-ydpi="35.39782">
  <defs
     id="defs4" />
  <sodipodi:namedview
     id="base"
     pagecolor="#ffffff"
     bordercolor="#666666"
     borderopacity="1.0"
     inkscape:pageopacity="0.0"
     inkscape:pageshadow="2"
     inkscape:zoom="0.48"
     inkscape:cx="1101.0235"
     inkscape:cy="511.25214"
     inkscape:document-units="px"
     inkscape:current-layer="layer1"
     showgrid="false"
     showguides="true"
     inkscape:guide-bbox="true"
     inkscape:snap-center="true"
     inkscape:window-width="1280"
     inkscape:window-height="738"
     inkscape:window-x="-8"
     inkscape:window-y="-8"
     inkscape:window-maximized="1"
     inkscape:snap-page="true"
     inkscape:snap-bbox="true"
     inkscape:snap-grids="false"
     inkscape:snap-to-guides="false"
     inkscape:snap-midpoints="true" />
  <metadata
     id="metadata7">
    <rdf:RDF>
      <cc:Work
         rdf:about="">
        <dc:format>image/svg+xml</dc:format>
        <dc:type
           rdf:resource="http://purl.org/dc/dcmitype/StillImage" />
        <dc:title></dc:title>
      </cc:Work>
    </rdf:RDF>
  </metadata>
  <g
     inkscape:label="Layer 1"
     inkscape:groupmode="layer"
     id="layer1"
     style="display:inline">
    <rect
       style="opacity:0.96000001;fill:#e9afdd;fill-opacity:1"
       id="rect3111"
       width="506.672"
       height="806.10657"
       x="9.1107677e-015"
       y="70.161392" />
    <rect
       style="fill:#e9afdd;fill-opacity:1"
       id="rect3163"
       width="198.14101"
       height="228.94322"
       x="523.2691"
       y="70.2873" />
    <rect
       style="fill:#e9afdd"
       id="rect3169"
       width="106.78137"
       height="110.85241"
       x="521.07812"
       y="308.64172" />
    <flowRoot
       xml:space="preserve"
       id="flowRoot4062"
       style="font-size:40px;font-style:normal;font-weight:normal;line-height:125%;letter-spacing:0px;word-spacing:0px;fill:#000000;fill-opacity:1;stroke:none;font-family:Sans"><flowRegion
         id="flowRegion4064"><rect
           id="rect4066"
           width="155.56345"
           height="138.48941"
           x="201.09421"
           y="496.50745" /></flowRegion><flowPara
         id="flowPara4068" /></flowRoot>    <path
       style="fill:none;stroke:#000000;stroke-width:1px;stroke-linecap:butt;stroke-linejoin:miter;stroke-opacity:1"
       d="m 1253.191,805.58029 0,0"
       id="path4136"
       inkscape:connector-type="polyline"
       inkscape:connector-curvature="0" />
    <text
       xml:space="preserve"
       style="font-size:28px;font-style:normal;font-variant:normal;font-weight:normal;font-stretch:normal;text-align:start;line-height:125%;letter-spacing:0px;word-spacing:0px;text-anchor:start;fill:#000000;fill-opacity:1;stroke:none;font-family:Algerian;-inkscape-font-specification:Algerian"
       x="-41.089493"
       y="139.84979"
       id="text4220"
       sodipodi:linespacing="125%"><tspan
         sodipodi:role="line"
         id="tspan4222"
         x="-41.089493"
         y="139.84979" /></text>
    <rect
       style="opacity:0.96000001;fill:#c837ab;fill-opacity:0.92156863"
       id="rect4242"
       width="510.36017"
       height="140.049"
       x="2.6013913e-014"
       y="736.21899" />
    <text
       xml:space="preserve"
       style="font-size:66.70969391px;font-style:normal;font-variant:normal;font-weight:normal;font-stretch:normal;text-align:center;line-height:125%;letter-spacing:0px;word-spacing:0px;writing-mode:lr-tb;text-anchor:middle;fill:#002b22;fill-opacity:1;stroke:none;font-family:Microsoft Sans Serif;-inkscape-font-specification:Microsoft Sans Serif"
       x="289.004"
       y="727.40424"
       id="text4264"
       sodipodi:linespacing="125%"
       transform="scale(0.90091943,1.1099772)"
       inkscape:export-xdpi="35.39782"
       inkscape:export-ydpi="35.39782"><tspan
         sodipodi:role="line"
         id="tspan4266"
         x="289.004"
         y="727.40424"
         style="font-size:66.70969391px;font-style:normal;font-variant:normal;font-weight:normal;font-stretch:normal;text-align:center;line-height:125%;writing-mode:lr-tb;text-anchor:middle;fill:#ffffff;font-family:Microsoft Sans Serif;-inkscape-font-specification:Microsoft Sans Serif">Pausas Activas</tspan></text>
    <rect
       style="opacity:0.96000001;fill:#e9afdd;fill-opacity:1;display:inline"
       id="rect3111-0"
       width="494.95496"
       height="800"
       x="770.82581"
       y="93.118454" />
    <rect
       style="opacity:0.96000001;fill:#d35fbc;fill-opacity:0.92156863;display:inline"
       id="rect4242-4"
       width="417.90356"
       height="86.412163"
       x="810.24017"
       y="389.23572" />
    <rect
       style="opacity:0.96000001;fill:#00d4aa;fill-opacity:0.92156863"
       id="rect3040"
       width="63.307804"
       height="4.5195775e-006"
       x="890.58405"
       y="155.57281" />
    <text
       xml:space="preserve"
       style="font-size:44.56887071px;font-style:normal;font-variant:normal;font-weight:normal;font-stretch:normal;text-align:center;line-height:125%;letter-spacing:0px;word-spacing:0px;text-anchor:middle;fill:#ffffff;fill-opacity:1;stroke:none;font-family:Microsoft Sans Serif;-inkscape-font-specification:Microsoft Sans Serif;writing-mode:lr"
       x="1134.6156"
       y="403.79071"
       id="text3045"
       sodipodi:linespacing="125%"
       transform="scale(0.89748745,1.1142217)"><tspan
         sodipodi:role="line"
         id="tspan4062">Edad Entre</tspan></text>
    <rect
       style="opacity:0.96000001;fill:#d35fbc;fill-opacity:0.92156863"
       id="rect3070"
       width="409.24484"
       height="88.916489"
       x="813.48553"
       y="604.69519" />
    <text
       xml:space="preserve"
       style="font-size:40px;font-style:normal;font-variant:normal;font-weight:normal;font-stretch:normal;text-align:center;line-height:125%;letter-spacing:0px;word-spacing:0px;text-anchor:middle;fill:#ffffff;fill-opacity:1;stroke:none;font-family:Microsoft Sans Serif;-inkscape-font-specification:Microsoft Sans Serif"
       x="1017.6392"
       y="663.22571"
       id="text3072"
       sodipodi:linespacing="125%"><tspan
         sodipodi:role="line"
         id="tspan3074"
         x="1017.6392"
         y="663.22571">Intesidad Laboral</tspan></text>
    <text
       xml:space="preserve"
       style="font-size:17.80608559px;font-style:normal;font-variant:normal;font-weight:normal;font-stretch:normal;text-align:center;line-height:125%;letter-spacing:0px;word-spacing:0px;text-anchor:middle;fill:#ffffff;fill-opacity:1;stroke:none;display:inline;font-family:Microsoft New Tai Lue;-inkscape-font-specification:Microsoft New Tai Lue"
       x="1187.719"
       y="96.450165"
       id="text4264-4"
       sodipodi:linespacing="125%"
       transform="scale(0.73369735,1.3629598)"><tspan
         sodipodi:role="line"
         id="tspan4266-0"
         x="1187.719"
         y="96.450165">Pausas Activas</tspan></text>
    <rect
       style="opacity:0.96000001;fill:#aa00d4;fill-opacity:0.92156863"
       id="rect3104"
       width="484.75708"
       height="94.057343"
       x="771.77588"
       y="800.21942" />
    <rect
       style="opacity:0.96000001;fill:#e9afdd;fill-opacity:0.92156863"
       id="rect3158"
       width="67.167885"
       height="59.797516"
       x="996.40491"
       y="-751.13947"
       ry="127.80469"
       transform="matrix(0.99261922,0.12127273,0.11036617,-0.99389099,0,0)" />
    <rect
       style="opacity:0.96000001;fill:#e9afdd;fill-opacity:0.92156863;display:inline"
       id="rect3158-9"
       width="67.167885"
       height="59.797516"
       x="1135.8386"
       y="-734.50812"
       ry="127.80469"
       transform="matrix(0.99261922,0.12127273,0.11036617,-0.99389099,0,0)" />
    <rect
       style="opacity:0.96000001;fill:#441650;fill-opacity:0.92156863"
       id="rect3185"
       width="477.23965"
       height="6.2384272"
       x="775.53461"
       y="785.98102" />
    <rect
       style="opacity:0.96000001;fill:#441650;fill-opacity:0.92156863;display:inline"
       id="rect3185-4"
       width="498.86026"
       height="6.2384272"
       x="5.7499542"
       y="-739.3382"
       transform="scale(1,-1)" />
    <text
       xml:space="preserve"
       style="font-size:48px;font-style:normal;font-variant:normal;font-weight:normal;font-stretch:normal;text-align:center;line-height:125%;letter-spacing:0px;word-spacing:0px;text-anchor:middle;fill:#ffffff;fill-opacity:1;stroke:none;display:inline;font-family:Microsoft Sans Serif;-inkscape-font-specification:Microsoft Sans Serif"
       x="1493.6399"
       y="200.25504"
       id="text4264-1-8"
       sodipodi:linespacing="125%"><tspan
         sodipodi:role="line"
         id="tspan4266-7-2"
         x="1493.6399"
         y="200.25504"
         style="font-size:40px;font-style:normal;font-variant:normal;font-weight:normal;font-stretch:normal;font-family:Microsoft Sans Serif;-inkscape-font-specification:Microsoft Sans Serif">Es hora de tu pausa</tspan></text>
    <text
       xml:space="preserve"
       style="font-size:17.80608559px;font-style:normal;font-variant:normal;font-weight:normal;font-stretch:normal;text-align:center;line-height:125%;letter-spacing:0px;word-spacing:0px;text-anchor:middle;fill:#ffffff;fill-opacity:1;stroke:none;display:inline;font-family:Snap ITC;-inkscape-font-specification:Snap ITC"
       x="1831.4066"
       y="91.645721"
       id="text4264-4-4"
       sodipodi:linespacing="125%"
       transform="scale(0.73369735,1.3629598)"><tspan
         sodipodi:role="line"
         id="tspan4266-0-5"
         x="1831.4066"
         y="91.645721">Pausas Activas</tspan></text>
    <text
       xml:space="preserve"
       style="font-size:48px;font-style:normal;font-variant:normal;font-weight:normal;font-stretch:normal;text-align:center;line-height:125%;letter-spacing:0px;word-spacing:0px;text-anchor:middle;fill:#ffffff;fill-opacity:1;stroke:none;display:inline;font-family:Microsoft Sans Serif;-inkscape-font-specification:Microsoft Sans Serif"
       x="1492.9536"
       y="444.6846"
       id="text4264-1-8-7"
       sodipodi:linespacing="125%"><tspan
         sodipodi:role="line"
         id="tspan4266-7-2-1"
         x="1492.9536"
         y="444.6846"
         style="font-size:40px;font-style:normal;font-variant:normal;font-weight:normal;font-stretch:normal;font-family:Microsoft Sans Serif;-inkscape-font-specification:Microsoft Sans Serif">Mostrar ejercicios</tspan></text>
    <text
       xml:space="preserve"
       style="font-size:17.80608559px;font-style:normal;font-variant:normal;font-weight:normal;font-stretch:normal;text-align:center;line-height:125%;letter-spacing:0px;word-spacing:0px;text-anchor:middle;fill:#ffffff;fill-opacity:1;stroke:none;display:inline;font-family:Snap ITC;-inkscape-font-specification:Snap ITC"
       x="2577.4983"
       y="59.959061"
       id="text4264-4-4-2"
       sodipodi:linespacing="125%"
       transform="scale(0.73369735,1.3629598)"><tspan
         sodipodi:role="line"
         id="tspan4266-0-5-1"
         x="2577.4983"
         y="59.959061">Pausas Activas</tspan></text>
    <text
       xml:space="preserve"
       style="font-size:48px;font-style:normal;font-variant:normal;font-weight:normal;font-stretch:normal;text-align:center;line-height:125%;letter-spacing:0px;word-spacing:0px;text-anchor:middle;fill:#ffffff;fill-opacity:1;stroke:none;display:inline;font-family:Microsoft Sans Serif;-inkscape-font-specification:Microsoft Sans Serif"
       x="2055.0376"
       y="154.58026"
       id="text4264-1-8-6"
       sodipodi:linespacing="125%"><tspan
         sodipodi:role="line"
         id="tspan4266-7-2-8"
         x="2055.0376"
         y="154.58026"
         style="font-size:48px;font-style:normal;font-variant:normal;font-weight:normal;font-stretch:normal;font-family:Microsoft Sans Serif;-inkscape-font-specification:Microsoft Sans Serif">Puntaje</tspan></text>
    <flowRoot
       xml:space="preserve"
       id="flowRoot3101"
       style="font-size:40px;font-style:normal;font-weight:normal;line-height:125%;letter-spacing:0px;word-spacing:0px;fill:#000000;fill-opacity:1;stroke:none;font-family:Sans"><flowRegion
         id="flowRegion3103"><rect
           id="rect3105"
           width="1528.6731"
           height="669.685"
           x="759.24774"
           y="36.639301" /></flowRegion><flowPara
         id="flowPara3107" /></flowRoot>    <g
       id="g3147"
       transform="matrix(4.3611572,0,0,5.5576151,63.549492,178.53881)">
      <path
         id="path3133"
         d="m 71.046,17.12 c 3.911,0 7.078,-3.167 7.078,-7.078 0,-3.889 -3.167,-7.055 -7.078,-7.055 -3.889,0 -7.055,3.166 -7.055,7.055 10e-4,3.912 3.167,7.078 7.055,7.078 z"
         inkscape:connector-curvature="0" />
      <path
         id="path3135"
         d="M 76.308,18.704 H 65.994 L 48.415,1.125 C 47.041,-0.318 44.76,-0.388 43.316,1.009 41.872,2.383 41.802,4.664 43.176,6.108 l 18.37,18.394 v 60.955 c 0,2.212 1.77,3.981 3.958,3.981 2.212,0 3.981,-1.77 3.981,-3.981 V 52.394 h 3.213 l 0.023,33.062 c 0,2.212 1.793,3.981 3.981,3.981 2.188,0 3.958,-1.77 3.958,-3.981 L 80.637,24.501 99.009,6.107 c 1.373,-1.444 1.303,-3.725 -0.141,-5.099 -1.443,-1.397 -3.725,-1.327 -5.099,0.116 l -17.461,17.58 z"
         inkscape:connector-curvature="0" />
      <path
         id="path3137"
         d="M 38.938,45.595 C 37.867,44.501 36.4,43.849 34.771,43.849 H 19.975 c -1.63,0 -3.097,0.652 -4.145,1.746 L 0.999,60.427 c -1.374,1.443 -1.327,3.725 0.116,5.099 1.443,1.374 3.749,1.327 5.099,-0.116 L 17.715,53.908 V 69.274 H 4.817 c -2.375,0 -4.284,1.909 -4.284,4.284 0,1.234 0.466,2.328 1.304,3.12 l 14.529,14.528 c 1.28,1.887 3.795,2.491 5.797,1.327 2.119,-1.21 2.817,-3.888 1.606,-5.983 l -8.289,-8.266 0.163,0.023 H 39.45 l -8.312,8.266 c -1.188,2.096 -0.489,4.772 1.606,5.983 2.002,1.164 4.541,0.559 5.821,-1.327 L 53.094,76.701 c 0.838,-0.792 1.303,-1.886 1.303,-3.12 0,-2.375 -1.908,-4.284 -4.284,-4.284 H 37.239 V 54.093 l 11.292,11.339 c 1.374,1.444 3.656,1.49 5.099,0.116 1.443,-1.373 1.49,-3.654 0.116,-5.099 L 38.938,45.595 z"
         inkscape:connector-curvature="0" />
      <path
         id="path3139"
         d="m 27.518,42.335 c 3.9,0 7.043,-3.166 7.043,-7.055 0,-3.911 -3.144,-7.055 -7.043,-7.055 -3.888,0 -7.055,3.144 -7.055,7.055 0,3.889 3.167,7.055 7.055,7.055 z"
         inkscape:connector-curvature="0" />
    </g>
    <flowRoot
       xml:space="preserve"
       id="flowRoot3153"
       style="font-size:40px;font-style:normal;font-weight:normal;line-height:125%;letter-spacing:0px;word-spacing:0px;fill:#000000;fill-opacity:1;stroke:none;font-family:Sans"><flowRegion
         id="flowRegion3155"><rect
           id="rect3157"
           width="0"
           height="46.816887"
           x="850.84601"
           y="315.5051" /></flowRegion><flowPara
         id="flowPara3159" /></flowRoot>    <flowRoot
       xml:space="preserve"
       id="flowRoot3161"
       style="font-size:40px;font-style:normal;font-weight:normal;line-height:125%;letter-spacing:0px;word-spacing:0px;fill:#000000;fill-opacity:1;stroke:none;font-family:Sans"><flowRegion
         id="flowRegion3163"><rect
           id="rect3165"
           width="105.84687"
           height="168.94789"
           x="795.88708"
           y="221.87132" /></flowRegion><flowPara
         id="flowPara3167" /></flowRoot>    <g
       id="g3199"
       transform="matrix(1.6431359,0,0,1.9870133,540.18602,92.214787)">
      <path
         id="path3185"
         d="m 71.046,17.12 c 3.911,0 7.078,-3.167 7.078,-7.078 0,-3.889 -3.167,-7.055 -7.078,-7.055 -3.889,0 -7.055,3.166 -7.055,7.055 10e-4,3.912 3.167,7.078 7.055,7.078 z"
         inkscape:connector-curvature="0" />
      <path
         id="path3187"
         d="M 76.308,18.704 H 65.994 L 48.415,1.125 C 47.041,-0.318 44.76,-0.388 43.316,1.009 41.872,2.383 41.802,4.664 43.176,6.108 l 18.37,18.394 v 60.955 c 0,2.212 1.77,3.981 3.958,3.981 2.212,0 3.981,-1.77 3.981,-3.981 V 52.394 h 3.213 l 0.023,33.062 c 0,2.212 1.793,3.981 3.981,3.981 2.188,0 3.958,-1.77 3.958,-3.981 L 80.637,24.501 99.009,6.107 c 1.373,-1.444 1.303,-3.725 -0.141,-5.099 -1.443,-1.397 -3.725,-1.327 -5.099,0.116 l -17.461,17.58 z"
         inkscape:connector-curvature="0" />
      <path
         id="path3189"
         d="M 38.938,45.595 C 37.867,44.501 36.4,43.849 34.771,43.849 H 19.975 c -1.63,0 -3.097,0.652 -4.145,1.746 L 0.999,60.427 c -1.374,1.443 -1.327,3.725 0.116,5.099 1.443,1.374 3.749,1.327 5.099,-0.116 L 17.715,53.908 V 69.274 H 4.817 c -2.375,0 -4.284,1.909 -4.284,4.284 0,1.234 0.466,2.328 1.304,3.12 l 14.529,14.528 c 1.28,1.887 3.795,2.491 5.797,1.327 2.119,-1.21 2.817,-3.888 1.606,-5.983 l -8.289,-8.266 0.163,0.023 H 39.45 l -8.312,8.266 c -1.188,2.096 -0.489,4.772 1.606,5.983 2.002,1.164 4.541,0.559 5.821,-1.327 L 53.094,76.701 c 0.838,-0.792 1.303,-1.886 1.303,-3.12 0,-2.375 -1.908,-4.284 -4.284,-4.284 H 37.239 V 54.093 l 11.292,11.339 c 1.374,1.444 3.656,1.49 5.099,0.116 1.443,-1.373 1.49,-3.654 0.116,-5.099 L 38.938,45.595 z"
         inkscape:connector-curvature="0" />
      <path
         id="path3191"
         d="m 27.518,42.335 c 3.9,0 7.043,-3.166 7.043,-7.055 0,-3.911 -3.144,-7.055 -7.043,-7.055 -3.888,0 -7.055,3.144 -7.055,7.055 0,3.889 3.167,7.055 7.055,7.055 z"
         inkscape:connector-curvature="0" />
      <path
         inkscape:connector-curvature="0"
         d="M 38.938,45.595 C 37.867,44.501 36.4,43.849 34.771,43.849 H 19.975 c -1.63,0 -3.097,0.652 -4.145,1.746 L 0.999,60.427 c -1.374,1.443 -1.327,3.725 0.116,5.099 1.443,1.374 3.749,1.327 5.099,-0.116 L 17.715,53.908 V 69.274 H 4.817 c -2.375,0 -4.284,1.909 -4.284,4.284 0,1.234 0.466,2.328 1.304,3.12 l 14.529,14.528 c 1.28,1.887 3.795,2.491 5.797,1.327 2.119,-1.21 2.817,-3.888 1.606,-5.983 l -8.289,-8.266 0.163,0.023 H 39.45 l -8.312,8.266 c -1.188,2.096 -0.489,4.772 1.606,5.983 2.002,1.164 4.541,0.559 5.821,-1.327 L 53.094,76.701 c 0.838,-0.792 1.303,-1.886 1.303,-3.12 0,-2.375 -1.908,-4.284 -4.284,-4.284 H 37.239 V 54.093 l 11.292,11.339 c 1.374,1.444 3.656,1.49 5.099,0.116 1.443,-1.373 1.49,-3.654 0.116,-5.099 L 38.938,45.595 z"
         id="path3245" />
    </g>
    <g
       id="g3235"
       transform="matrix(0.77608557,0,0,0.77608557,535.53075,339.33036)">
      <path
         id="path3221"
         d="m 71.046,17.12 c 3.911,0 7.078,-3.167 7.078,-7.078 0,-3.889 -3.167,-7.055 -7.078,-7.055 -3.889,0 -7.055,3.166 -7.055,7.055 10e-4,3.912 3.167,7.078 7.055,7.078 z"
         inkscape:connector-curvature="0" />
      <path
         id="path3223"
         d="M 76.308,18.704 H 65.994 L 48.415,1.125 C 47.041,-0.318 44.76,-0.388 43.316,1.009 41.872,2.383 41.802,4.664 43.176,6.108 l 18.37,18.394 v 60.955 c 0,2.212 1.77,3.981 3.958,3.981 2.212,0 3.981,-1.77 3.981,-3.981 V 52.394 h 3.213 l 0.023,33.062 c 0,2.212 1.793,3.981 3.981,3.981 2.188,0 3.958,-1.77 3.958,-3.981 L 80.637,24.501 99.009,6.107 c 1.373,-1.444 1.303,-3.725 -0.141,-5.099 -1.443,-1.397 -3.725,-1.327 -5.099,0.116 l -17.461,17.58 z"
         inkscape:connector-curvature="0" />
      <path
         id="path3225"
         d="M 38.938,45.595 C 37.867,44.501 36.4,43.849 34.771,43.849 H 19.975 c -1.63,0 -3.097,0.652 -4.145,1.746 L 0.999,60.427 c -1.374,1.443 -1.327,3.725 0.116,5.099 1.443,1.374 3.749,1.327 5.099,-0.116 L 17.715,53.908 V 69.274 H 4.817 c -2.375,0 -4.284,1.909 -4.284,4.284 0,1.234 0.466,2.328 1.304,3.12 l 14.529,14.528 c 1.28,1.887 3.795,2.491 5.797,1.327 2.119,-1.21 2.817,-3.888 1.606,-5.983 l -8.289,-8.266 0.163,0.023 H 39.45 l -8.312,8.266 c -1.188,2.096 -0.489,4.772 1.606,5.983 2.002,1.164 4.541,0.559 5.821,-1.327 L 53.094,76.701 c 0.838,-0.792 1.303,-1.886 1.303,-3.12 0,-2.375 -1.908,-4.284 -4.284,-4.284 H 37.239 V 54.093 l 11.292,11.339 c 1.374,1.444 3.656,1.49 5.099,0.116 1.443,-1.373 1.49,-3.654 0.116,-5.099 L 38.938,45.595 z"
         inkscape:connector-curvature="0" />
      <path
         id="path3227"
         d="m 27.518,42.335 c 3.9,0 7.043,-3.166 7.043,-7.055 0,-3.911 -3.144,-7.055 -7.043,-7.055 -3.888,0 -7.055,3.144 -7.055,7.055 0,3.889 3.167,7.055 7.055,7.055 z"
         inkscape:connector-curvature="0" />
    </g>
    <rect
       id="rect3241"
       width="4.0710335"
       height="30.532751"
       x="858.9881"
       y="-177.08997" />
    <path
       style="fill:#cc44b1;fill-opacity:0.99607843"
       d="m 779.49146,832.23363 0,-29.90996 238.03344,0 238.0334,0 0,29.90996 0,29.90995 -72.0819,0 -72.0819,0 3.9693,-10.10494 c 3.7624,-9.57809 3.6985,-10.66243 -1.2253,-20.79715 -6.0631,-12.4796 -17.3052,-18.94784 -32.9323,-18.94784 -25.2012,0 -39.6461,21.37201 -28.7224,42.49622 l 3.8028,7.35371 -42.5242,0 c -41.26997,0 -42.44801,-0.14218 -39.94391,-4.82113 5.17695,-9.67322 3.08286,-24.34285 -4.74813,-33.26186 -19.90641,-22.67214 -59.96908,-12.13187 -59.96908,15.77754 0,5.5101 1.81143,12.78295 4.0254,16.16191 l 4.02541,6.14354 -68.83032,0 -68.83031,0 0,-29.90995 z"
       id="path3167"
       inkscape:connector-curvature="0" />
    <path
       style="fill:#cc44b1;fill-opacity:0.99607843"
       d="m 892.27692,892.67722 c 66.83006,-0.36911 176.18838,-0.36911 243.01838,0 66.8301,0.3691 12.1509,0.6711 -121.5092,0.6711 -133.6601,0 -188.33924,-0.302 -121.50918,-0.6711 z"
       id="path3169"
       inkscape:connector-curvature="0" />
    <path
       style="fill:#cc44b1;fill-opacity:0.99607843"
       d="m 772.01397,847.1886 c 0,-28.24829 0.92315,-44.86493 2.4925,-44.86493 1.52319,0 2.49249,11.63165 2.49249,29.90996 l 0,29.90995 69.26289,0 c 64.34196,0 69.95756,0.35417 79.04065,4.985 12.49122,6.36838 27.61649,6.36468 38.07082,-0.009 7.29895,-4.45026 12.57398,-4.97577 49.94608,-4.97577 36.8642,0 42.9366,0.58707 51.5629,4.985 12.4912,6.36838 27.6165,6.36468 38.0708,-0.009 7.6601,-4.67042 12.593,-4.97577 80.383,-4.97577 l 72.2222,0 0,14.95498 0,14.95498 -241.7722,0 -241.77213,0 0,-44.86494 z"
       id="path3171"
       inkscape:connector-curvature="0" />
    <path
       style="fill:#cc44b1;fill-opacity:0.99607843"
       d="m 772.0414,870.2442 c 0.0151,-11.99514 0.85631,-26.29584 1.86938,-31.77933 1.7467,-9.45448 1.91584,-9.06785 3.27117,7.47749 1.21355,14.81458 1.49565,12.83992 1.86937,-13.08561 l 0.44014,-30.53308 238.03344,0 238.0334,0 0,44.86493 0,44.86494 -241.7722,0 -241.77213,0 0.0274,-21.80934 0,0 z m 191.033,-1.86938 c 5.23193,-2.18604 16.64626,-3.73874 27.4845,-3.73874 11.7229,0 17.9702,-0.91618 16.996,-2.4925 -0.8473,-1.37087 -8.48441,-2.49096 -16.97147,-2.4891 l -15.431,0.003 0.84208,-13.50981 c 0.77249,-12.39354 0.15465,-14.25824 -7.47749,-22.56761 -14.62048,-15.91782 -39.07881,-16.45637 -52.78259,-1.16224 -6.09693,6.80449 -6.93375,9.49457 -6.05022,19.44917 0.56395,6.35385 1.90512,13.5153 2.98038,15.91432 1.798,4.01154 -0.51875,4.39893 -28.84473,4.8232 l -30.79975,0.46132 34.89495,1.40805 c 20.57861,0.83037 36.94014,2.6552 39.87994,4.44787 6.89973,4.20743 24.55522,3.93352 35.2794,-0.54733 z m 139.5798,0 c 6.0414,-2.52425 19.1723,-3.91381 40.423,-4.27767 l 31.4749,-0.53894 -30.7695,-0.78592 c -27.8954,-0.71252 -30.6148,-1.18604 -29.1123,-5.06919 6.2089,-16.04693 1.3431,-32.33962 -12.2011,-40.85404 -6.0407,-3.79742 -11.0673,-4.63475 -23.5838,-3.92854 -14.3306,0.80857 -16.637,1.71479 -23.2768,9.14595 -6.4057,7.16933 -7.2358,9.75984 -6.3446,19.80092 0.564,6.35385 1.9051,13.5153 2.9804,15.91432 1.7562,3.91823 0.09,4.40288 -16.3823,4.76505 l -18.3372,0.40319 22.4324,1.53432 c 12.3379,0.84388 24.6758,2.87159 27.4175,4.50602 6.9539,4.14544 24.6227,3.8372 35.2794,-0.61547 l 0,0 z"
       id="path3173"
       inkscape:connector-curvature="0" />
    <path
       style="fill:#cc44b1;fill-opacity:0.99607843"
       d=""
       id="path3175"
       inkscape:connector-curvature="0" />
    <path
       style="fill:#cc44b1;fill-opacity:0.99607843"
       d=""
       id="path3177"
       inkscape:connector-curvature="0" />
    <path
       style="fill:#cc44b1;fill-opacity:0.99607843"
       d=""
       id="path3179"
       inkscape:connector-curvature="0" />
    <path
       style="fill:#cc44b1;fill-opacity:0.99607843"
       d="m 978.89118,862.14358 c -3.09594,-2.00074 -2.88167,-2.41616 1.24624,-2.41616 2.74175,0 6.66743,1.08727 8.72374,2.41616 3.09593,2.00075 2.88166,2.41617 -1.24625,2.41617 -2.74174,0 -6.66743,-1.08728 -8.72373,-2.41617 z"
       id="path3181"
       inkscape:connector-curvature="0" />
    <path
       style="fill:#cc44b1;fill-opacity:0.99607843"
       d=""
       id="path3183"
       inkscape:connector-curvature="0" />
    <path
       style="fill:#cc44b1;fill-opacity:0.99607843"
       d="m 772.01397,868.68639 c 0,-12.85194 0.84122,-27.15264 1.86937,-31.77933 1.78591,-8.0366 1.9347,-7.80012 3.33248,5.29655 1.13873,10.6695 1.55317,7.76841 1.86937,-13.0856 l 0.40627,-26.79434 238.03344,0 238.0334,0 0,44.86493 0,44.86494 -241.7722,0 -241.77213,0 0,-23.36715 z m 191.37916,-0.4657 c 5.36318,-2.25302 16.38513,-3.87791 26.16497,-3.85733 10.8724,0.0229 16.3372,-0.87207 15.3251,-2.50972 -0.8652,-1.3999 -6.78693,-2.3685 -13.15943,-2.15243 -6.37249,0.21606 -12.70797,0.29471 -14.07884,0.17476 -1.44729,-0.12663 -2.13404,-5.97553 -1.63768,-13.94777 0.79657,-12.79409 0.27906,-14.30545 -7.59445,-22.17895 -15.96093,-15.96093 -40.26417,-16.26214 -53.39106,-0.66171 -5.45401,6.48171 -6.2684,9.43279 -5.24414,19.00283 0.66692,6.23121 2.0292,13.29232 3.02729,15.69134 1.64597,3.95628 -0.35394,4.40194 -21.50754,4.79281 l -23.32227,0.43094 27.41746,1.46077 c 15.07961,0.80342 29.66071,2.81863 32.40246,4.47826 7.00629,4.24102 24.63276,3.88263 35.59813,-0.7238 l 0,0 z m 139.26107,0.15413 c 5.1298,-2.14338 18.1245,-3.95523 30.453,-4.24608 l 21.505,-0.50733 -20.7897,-0.84338 c -18.4214,-0.7473 -20.5978,-1.32836 -19.1048,-5.10078 9.4062,-23.76778 -6.6079,-45.39662 -33.5953,-45.37428 -12.5368,0.0104 -25.4412,6.52302 -30.0728,15.17725 -2.885,5.39069 -2.1506,21.73488 1.3615,30.30149 1.5624,3.8109 0.1017,4.40804 -11.564,4.7274 -13.0075,0.35609 -12.9017,0.40773 4.0952,1.99982 9.5961,0.89887 19.6908,2.94352 22.4325,4.54368 7.0055,4.08858 24.6848,3.74893 35.2794,-0.67779 l 0,0 z"
       id="path3186"
       inkscape:connector-curvature="0" />
    <path
       style="fill:#cc44b1;fill-opacity:0.99607843"
       d="m 772.04801,866.50545 c 0.0187,-14.05145 0.84327,-28.35215 1.83233,-31.77933 1.63027,-5.64899 1.94339,-5.29965 3.35101,3.73875 1.08667,6.97751 1.65888,3.04989 1.90641,-13.08561 l 0.3537,-23.05559 238.03344,0 238.0334,0 0,44.86493 0,44.86494 -241.7722,0 -241.77213,0 0.034,-25.54809 0,0 z m 190.57131,1.73825 c 5.09405,-2.12843 15.88645,-3.90155 23.98311,-3.94028 8.09667,-0.0387 14.72117,-1.18605 14.72117,-2.54962 0,-1.36357 -4.76686,-2.29049 -10.59307,-2.05982 -5.82621,0.23068 -11.71473,0.31608 -13.0856,0.1898 -1.39281,-0.12829 -2.17116,-5.45379 -1.76418,-12.0705 0.89938,-14.62187 -5.19167,-25.45245 -17.63509,-31.35724 -25.10215,-11.91175 -51.59938,2.80996 -48.3059,26.83847 0.7803,5.6929 2.15247,12.26285 3.04928,14.59989 1.43061,3.7281 -0.46532,4.29761 -15.46045,4.64407 l -17.09102,0.39489 21.18622,1.71174 c 11.65242,0.94146 23.99027,2.93591 27.41746,4.43212 9.04785,3.95002 22.95573,3.60478 33.57807,-0.83352 z m 138.40418,0.13112 c 5.8282,-2.05631 17.4659,-3.95082 25.8615,-4.21003 l 15.2647,-0.4713 -14.348,-0.89982 c -14.2398,-0.89304 -14.3342,-0.95055 -12.516,-7.62932 8.0511,-29.57375 -20.4148,-51.82261 -50.3179,-39.3283 -14.4489,6.03712 -19.5432,23.4408 -12.3491,42.18826 1.1142,2.90371 -0.7853,4.02628 -8.0952,4.78389 l -9.5512,0.98989 11.2163,0.60862 c 6.1689,0.33474 15.1419,2.12039 19.94,3.96811 11.6925,4.50277 22.1327,4.50277 34.8949,0 z"
       id="path3188"
       inkscape:connector-curvature="0" />
    <path
       style="fill:#cc44b1;fill-opacity:0.99607843"
       d=""
       id="path3190"
       inkscape:connector-curvature="0" />
    <rect
       style="fill:#cc44b1;fill-opacity:1"
       id="rect3214"
       width="411.2619"
       height="94.714867"
       x="810.06134"
       y="222.36087" />
    <flowRoot
       xml:space="preserve"
       id="flowRoot3228"
       style="font-size:40px;font-style:normal;font-weight:normal;line-height:125%;letter-spacing:0px;word-spacing:0px;fill:#ffffff;fill-opacity:1;stroke:none;font-family:Microsoft Sans Serif;-inkscape-font-specification:Microsoft Sans Serif;font-stretch:normal;font-variant:normal;text-anchor:start;text-align:start;writing-mode:lr"
       transform="translate(24.748932,-40.519089)"><flowRegion
         id="flowRegion3230"><rect
           id="rect3232"
           width="316.54703"
           height="67.297401"
           x="849.94128"
           y="287.16577"
           style="fill:#ffffff;-inkscape-font-specification:Microsoft Sans Serif;font-family:Microsoft Sans Serif;font-weight:normal;font-style:normal;font-stretch:normal;font-variant:normal;font-size:40px;text-anchor:start;text-align:start;writing-mode:lr;line-height:125%"
           ry="0" /></flowRegion><flowPara
         id="flowPara3234">Tipo de Usuario</flowPara></flowRoot>    <path
       style="fill:#d567c0;fill-opacity:0.99607843"
       d=""
       id="path3242"
       inkscape:connector-curvature="0" />
    <path
       style="fill:#d567c0;fill-opacity:0.99607843"
       d=""
       id="path3244"
       inkscape:connector-curvature="0" />
    <path
       style="fill:#d567c0;fill-opacity:0.99607843"
       d="m 1141.7405,272.50064 c -2.0774,-5.41361 3.1965,-10.50466 6.9714,-6.72974 3.1905,3.19048 1.214,10.63602 -2.8235,10.63602 -1.4569,0 -3.3235,-1.75782 -4.1479,-3.90628 z"
       id="path3246"
       inkscape:connector-curvature="0" />
    <path
       style="fill:#d567c0;fill-opacity:0.99607843"
       d="m 915.55206,273.69445 c -2.87521,-6.31042 1.85035,-13.70149 6.36476,-9.95487 1.00673,0.83551 1.83041,3.42503 1.83041,5.75449 0,7.29516 -5.50055,10.11443 -8.19517,4.20038 z"
       id="path3258"
       inkscape:connector-curvature="0" />
    <path
       style="fill:#d567c0;fill-opacity:0.99607843"
       d="m 1053.2533,274.24159 c -4.7426,-3.95204 -2.9039,-5.23909 3.5402,-2.47801 3.1646,1.35595 5.3785,3.07275 4.9197,3.8151 -1.3007,2.10461 -5.0386,1.51383 -8.4599,-1.33709 z"
       id="path3260"
       inkscape:connector-curvature="0" />
    <path
       style="fill:#d567c0;fill-opacity:0.99607843"
       d="m 1097.2525,274.69565 c 0.2909,-1.53336 1.8553,-2.59246 4.2326,-2.86545 3.0454,-0.34972 3.6822,0.035 3.3094,1.99936 -0.2909,1.53337 -1.8553,2.59246 -4.2326,2.86545 -3.0454,0.34972 -3.6822,-0.035 -3.3094,-1.99936 l 0,0 z"
       id="path3262"
       inkscape:connector-curvature="0" />
    <path
       style="fill:#d567c0;fill-opacity:0.99607843"
       d="m 1143.1777,273.55258 c -1.4618,-3.80936 -0.9022,-6.97609 1.3881,-7.85494 3.0996,-1.18945 4.7286,0.89537 4.2132,5.39216 -0.4878,4.25627 -4.2742,5.92108 -5.6013,2.46278 z"
       id="path3264"
       inkscape:connector-curvature="0" />
    <path
       style="fill:#d567c0;fill-opacity:0.99607843"
       d="m 970.20114,273.69445 c -1.79752,-3.94513 -0.5896,-9.50773 2.30588,-10.61883 2.7806,-1.06702 4.4413,0.0475 5.93851,3.98549 2.8759,7.56418 -4.95098,13.86159 -8.24439,6.63334 z"
       id="path3266"
       inkscape:connector-curvature="0" />
    <path
       style="fill:#d567c0;fill-opacity:0.99607843"
       d="m 993.32483,275.32893 c -2.94917,-2.94918 -1.64654,-3.73265 6.06472,-3.64764 5.69485,0.0628 6.92865,0.38127 4.80155,1.23949 -1.5744,0.63526 -3.2593,1.79685 -3.7441,2.58133 -1.17892,1.90746 -5.13778,1.8112 -7.12217,-0.17318 z"
       id="path3268"
       inkscape:connector-curvature="0" />
    <path
       style="fill:#d567c0;fill-opacity:0.99607843"
       d="m 992.53669,265.70179 c 1.49353,-3.89207 7.54701,-3.89207 9.04051,0 0.5534,1.44192 -0.5298,1.8963 -4.52023,1.8963 -3.99047,0 -5.07359,-0.45438 -4.52028,-1.8963 z"
       id="path3270"
       inkscape:connector-curvature="0" />
    <path
       style="fill:#d567c0;fill-opacity:0.99607843"
       d="m 916.27503,273.70875 c -1.50124,-3.91215 0.0534,-9.44292 2.65435,-9.44292 3.1077,0 4.8475,4.32062 3.35452,8.33065 -1.2458,3.34613 -4.89262,4.02117 -6.00887,1.11227 z"
       id="path3272"
       inkscape:connector-curvature="0" />
    <path
       style="fill:#d567c0;fill-opacity:0.99607843"
       d="m 914.52213,284.05095 c -0.0898,-3.58853 0.29132,-4.10345 2.59163,-3.50191 2.24622,0.5874 2.3832,0.95632 0.81978,2.2078 -1.03239,0.8264 -2.19862,2.40226 -2.59163,3.50191 -0.393,1.09964 -0.7619,0.10613 -0.81978,-2.2078 z"
       id="path3274"
       inkscape:connector-curvature="0" />
    <path
       style="fill:#d567c0;fill-opacity:0.99607843"
       d="m 1143.1777,273.55258 c -1.4618,-3.80936 -0.9022,-6.97609 1.3881,-7.85494 3.0996,-1.18945 4.7286,0.89537 4.2132,5.39216 -0.4878,4.25627 -4.2742,5.92108 -5.6013,2.46278 z"
       id="path3276"
       inkscape:connector-curvature="0" />
    <path
       style="fill:#d567c0;fill-opacity:0.99607843"
       d="m 777.42013,824.58546 c -0.31326,-15.17429 -1.3025,-22.49276 -3.04034,-22.49276 -0.59501,0 -1.32375,1.94937 -1.61943,4.33194 -0.52929,4.26506 -0.54088,4.25477 -0.7509,-0.66645 l -0.21332,-4.99839 242.25536,0.32956 242.2553,0.32956 -238.8855,0.34053 -238.88545,0.34053 -0.41168,18.32379 c -0.3898,17.35 -0.42721,17.57117 -0.70404,4.16169 z"
       id="path3280"
       inkscape:connector-curvature="0" />
    <path
       style="fill:#d567c0;fill-opacity:0.99607843"
       d="m 911.3925,862.532 c 0.90242,-0.36512 2.70184,-0.38734 3.99871,-0.0494 1.29687,0.33795 0.55853,0.63667 -1.64076,0.66384 -2.19929,0.0272 -3.26037,-0.24934 -2.35795,-0.61445 z"
       id="path3282"
       inkscape:connector-curvature="0" />
    <path
       style="fill:#d567c0;fill-opacity:0.99607843"
       d=""
       id="path3284"
       inkscape:connector-curvature="0" />
    <path
       style="fill:#d567c0;fill-opacity:0.99607843"
       d="m 970.49525,860.56041 c 1.21688,-2.27375 1.75813,-2.47473 2.6923,-0.99967 1.81901,2.87221 1.43867,3.84556 -1.50266,3.84556 -2.35689,0 -2.51293,-0.37329 -1.18964,-2.84589 z"
       id="path3286"
       inkscape:connector-curvature="0" />
    <path
       style="fill:#d567c0;fill-opacity:0.99607843"
       d="m 1052.6804,862.532 c 0.9024,-0.36512 2.7018,-0.38734 3.9987,-0.0494 1.2968,0.33795 0.5585,0.63667 -1.6408,0.66384 -2.1993,0.0272 -3.2604,-0.24934 -2.3579,-0.61445 z"
       id="path3288"
       inkscape:connector-curvature="0" />
  </g>
</svg>
