<?xml version="1.0" encoding="UTF-8" standalone="no"?>
<!-- Created with Inkscape (http://www.inkscape.org/) -->

<svg
   xmlns:dc="http://purl.org/dc/elements/1.1/"
   xmlns:cc="http://creativecommons.org/ns#"
   xmlns:rdf="http://www.w3.org/1999/02/22-rdf-syntax-ns#"
   xmlns:svg="http://www.w3.org/2000/svg"
   xmlns="http://www.w3.org/2000/svg"
   xmlns:sodipodi="http://sodipodi.sourceforge.net/DTD/sodipodi-0.dtd"
   xmlns:inkscape="http://www.inkscape.org/namespaces/inkscape"
   width="744.09448819"
   height="1052.3622047"
   id="svg2"
   version="1.1"
   inkscape:version="0.48.2 r9819"
   sodipodi:docname="Prototipo 1.svg"
   inkscape:export-filename="C:\Users\kevin\Desktop\Analisis\PAUSAS ACTIVAS.png"
   inkscape:export-xdpi="35.39782"
   inkscape:export-ydpi="35.39782">
  <defs
     id="defs4" />
  <sodipodi:namedview
     id="base"
     pagecolor="#ffffff"
     bordercolor="#666666"
     borderopacity="1.0"
     inkscape:pageopacity="0.0"
     inkscape:pageshadow="2"
     inkscape:zoom="0.48"
     inkscape:cx="1101.0235"
     inkscape:cy="498.74058"
     inkscape:document-units="px"
     inkscape:current-layer="layer1"
     showgrid="false"
     showguides="true"
     inkscape:guide-bbox="true"
     inkscape:snap-center="true"
     inkscape:window-width="1366"
     inkscape:window-height="706"
     inkscape:window-x="-8"
     inkscape:window-y="-8"
     inkscape:window-maximized="1"
     inkscape:snap-page="true"
     inkscape:snap-bbox="true"
     inkscape:snap-grids="false"
     inkscape:snap-to-guides="false"
     inkscape:snap-midpoints="true" />
  <metadata
     id="metadata7">
    <rdf:RDF>
      <cc:Work
         rdf:about="">
        <dc:format>image/svg+xml</dc:format>
        <dc:type
           rdf:resource="http://purl.org/dc/dcmitype/StillImage" />
        <dc:title></dc:title>
      </cc:Work>
    </rdf:RDF>
  </metadata>
  <g
     inkscape:label="Layer 1"
     inkscape:groupmode="layer"
     id="layer1"
     style="display:inline">
    <rect
       style="opacity:0.96000001000000001;fill:#00aad4;fill-opacity:1"
       id="rect3111"
       width="506.672"
       height="806.10657"
       x="9.1107677e-015"
       y="70.161392" />
    <rect
       style="fill:#00aad4;fill-opacity:1"
       id="rect3163"
       width="198.14101"
       height="228.94322"
       x="523.2691"
       y="70.2873" />
    <rect
       style="fill:#00aad4"
       id="rect3169"
       width="106.78137"
       height="110.85241"
       x="521.07812"
       y="308.64172" />
    <flowRoot
       xml:space="preserve"
       id="flowRoot4062"
       style="font-size:40px;font-style:normal;font-weight:normal;line-height:125%;letter-spacing:0px;word-spacing:0px;fill:#000000;fill-opacity:1;stroke:none;font-family:Sans"><flowRegion
         id="flowRegion4064"><rect
           id="rect4066"
           width="155.56345"
           height="138.48941"
           x="201.09421"
           y="496.50745" /></flowRegion><flowPara
         id="flowPara4068" /></flowRoot>    <path
       style="fill:none;stroke:#000000;stroke-width:1px;stroke-linecap:butt;stroke-linejoin:miter;stroke-opacity:1"
       d="m 1253.191,805.58029 0,0"
       id="path4136"
       inkscape:connector-type="polyline"
       inkscape:connector-curvature="0" />
    <text
       xml:space="preserve"
       style="font-size:28px;font-style:normal;font-variant:normal;font-weight:normal;font-stretch:normal;text-align:start;line-height:125%;letter-spacing:0px;word-spacing:0px;text-anchor:start;fill:#000000;fill-opacity:1;stroke:none;font-family:Algerian;-inkscape-font-specification:Algerian"
       x="-41.089493"
       y="139.84979"
       id="text4220"
       sodipodi:linespacing="125%"><tspan
         sodipodi:role="line"
         id="tspan4222"
         x="-41.089493"
         y="139.84979" /></text>
    <rect
       style="opacity:0.96000001000000001;fill:#0088aa;fill-opacity:0.92156863000000000"
       id="rect4242"
       width="510.36017"
       height="125.46566"
       x="2.6013913e-014"
       y="746.21899" />
    <text
       xml:space="preserve"
       style="font-size:66.70969391px;font-style:normal;font-variant:normal;font-weight:normal;font-stretch:normal;text-align:center;line-height:125%;letter-spacing:0px;word-spacing:0px;writing-mode:lr-tb;text-anchor:middle;fill:#002b22;fill-opacity:1;stroke:none;font-family:Microsoft Sans Serif;-inkscape-font-specification:Microsoft Sans Serif"
       x="281.87601"
       y="749.82935"
       id="text4264"
       sodipodi:linespacing="125%"
       transform="scale(0.90091942,1.1099772)"
       inkscape:export-xdpi="35.39782"
       inkscape:export-ydpi="35.39782"><tspan
         sodipodi:role="line"
         id="tspan4266"
         x="281.87601"
         y="749.82935"
         style="font-size:66.70969391px;font-style:normal;font-variant:normal;font-weight:normal;font-stretch:normal;text-align:center;line-height:125%;writing-mode:lr-tb;text-anchor:middle;fill:#ffffff;font-family:Microsoft Sans Serif;-inkscape-font-specification:Microsoft Sans Serif">Pausas Activas</tspan></text>
    <rect
       style="opacity:0.96000001000000001;fill:#00aad4;fill-opacity:1;display:inline"
       id="rect3111-0"
       width="494.95496"
       height="800"
       x="766.30865"
       y="92.874352" />
    <rect
       style="opacity:0.96000001000000001;fill:#006680;fill-opacity:0.92156863000000000;display:inline"
       id="rect4242-4"
       width="417.90356"
       height="86.412163"
       x="810.24017"
       y="389.23572" />
    <rect
       style="opacity:0.96000001;fill:#00d4aa;fill-opacity:0.92156863"
       id="rect3040"
       width="63.307804"
       height="4.5195775e-006"
       x="890.58405"
       y="155.57281" />
    <text
       xml:space="preserve"
       style="font-size:44.56887071px;font-style:normal;font-variant:normal;font-weight:normal;font-stretch:normal;text-align:center;line-height:125%;letter-spacing:0px;word-spacing:0px;text-anchor:middle;fill:#ffffff;fill-opacity:1;stroke:none;font-family:Microsoft Sans Serif;-inkscape-font-specification:Microsoft Sans Serif;writing-mode:lr"
       x="1134.6156"
       y="403.79071"
       id="text3045"
       sodipodi:linespacing="125%"
       transform="scale(0.89748745,1.1142217)"><tspan
         sodipodi:role="line"
         id="tspan4062">Edad Entre</tspan></text>
    <rect
       style="opacity:0.96000001000000001;fill:#006680;fill-opacity:0.92156863000000000"
       id="rect3070"
       width="409.24484"
       height="88.916489"
       x="813.48553"
       y="604.69519" />
    <text
       xml:space="preserve"
       style="font-size:40px;font-style:normal;font-variant:normal;font-weight:normal;font-stretch:normal;text-align:center;line-height:125%;letter-spacing:0px;word-spacing:0px;text-anchor:middle;fill:#ffffff;fill-opacity:1;stroke:none;font-family:Microsoft Sans Serif;-inkscape-font-specification:Microsoft Sans Serif"
       x="1017.6392"
       y="663.22571"
       id="text3072"
       sodipodi:linespacing="125%"><tspan
         sodipodi:role="line"
         id="tspan3074"
         x="1017.6392"
         y="663.22571">Intesidad Laboral</tspan></text>
    <text
       xml:space="preserve"
       style="font-size:17.80608558999999900px;font-style:normal;font-variant:normal;font-weight:bold;font-stretch:normal;text-align:center;line-height:125%;letter-spacing:0px;word-spacing:0px;text-anchor:middle;fill:#ffffff;fill-opacity:1;stroke:none;display:inline;font-family:Microsoft New Tai Lue;-inkscape-font-specification:Microsoft New Tai Lue Bold"
       x="1187.719"
       y="96.450165"
       id="text4264-4"
       sodipodi:linespacing="125%"
       transform="scale(0.73369735,1.3629598)"><tspan
         sodipodi:role="line"
         id="tspan4266-0"
         x="1187.719"
         y="96.450165">Pausas Activas</tspan></text>
    <rect
       style="opacity:0.96000001000000001;fill:#00222b;fill-opacity:0.92156863000000000"
       id="rect3185"
       width="477.23965"
       height="6.2384272"
       x="775.53461"
       y="785.98102" />
    <rect
       style="opacity:0.96000001000000001;fill:#00222b;fill-opacity:0.92156863000000000;display:inline"
       id="rect3185-4"
       width="498.86026"
       height="6.2384272"
       x="5.7499542"
       y="-739.3382"
       transform="scale(1,-1)" />
    <text
       xml:space="preserve"
       style="font-size:48px;font-style:normal;font-variant:normal;font-weight:normal;font-stretch:normal;text-align:center;line-height:125%;letter-spacing:0px;word-spacing:0px;text-anchor:middle;fill:#ffffff;fill-opacity:1;stroke:none;display:inline;font-family:Microsoft Sans Serif;-inkscape-font-specification:Microsoft Sans Serif"
       x="1493.6399"
       y="200.25504"
       id="text4264-1-8"
       sodipodi:linespacing="125%"><tspan
         sodipodi:role="line"
         id="tspan4266-7-2"
         x="1493.6399"
         y="200.25504"
         style="font-size:40px;font-style:normal;font-variant:normal;font-weight:normal;font-stretch:normal;font-family:Microsoft Sans Serif;-inkscape-font-specification:Microsoft Sans Serif">Es hora de tu pausa</tspan></text>
    <text
       xml:space="preserve"
       style="font-size:17.80608559px;font-style:normal;font-variant:normal;font-weight:normal;font-stretch:normal;text-align:center;line-height:125%;letter-spacing:0px;word-spacing:0px;text-anchor:middle;fill:#ffffff;fill-opacity:1;stroke:none;display:inline;font-family:Snap ITC;-inkscape-font-specification:Snap ITC"
       x="1831.4066"
       y="91.645721"
       id="text4264-4-4"
       sodipodi:linespacing="125%"
       transform="scale(0.73369735,1.3629598)"><tspan
         sodipodi:role="line"
         id="tspan4266-0-5"
         x="1831.4066"
         y="91.645721">Pausas Activas</tspan></text>
    <text
       xml:space="preserve"
       style="font-size:48px;font-style:normal;font-variant:normal;font-weight:normal;font-stretch:normal;text-align:center;line-height:125%;letter-spacing:0px;word-spacing:0px;text-anchor:middle;fill:#ffffff;fill-opacity:1;stroke:none;display:inline;font-family:Microsoft Sans Serif;-inkscape-font-specification:Microsoft Sans Serif"
       x="1492.9536"
       y="444.6846"
       id="text4264-1-8-7"
       sodipodi:linespacing="125%"><tspan
         sodipodi:role="line"
         id="tspan4266-7-2-1"
         x="1492.9536"
         y="444.6846"
         style="font-size:40px;font-style:normal;font-variant:normal;font-weight:normal;font-stretch:normal;font-family:Microsoft Sans Serif;-inkscape-font-specification:Microsoft Sans Serif">Mostrar ejercicios</tspan></text>
    <text
       xml:space="preserve"
       style="font-size:17.80608559px;font-style:normal;font-variant:normal;font-weight:normal;font-stretch:normal;text-align:center;line-height:125%;letter-spacing:0px;word-spacing:0px;text-anchor:middle;fill:#ffffff;fill-opacity:1;stroke:none;display:inline;font-family:Snap ITC;-inkscape-font-specification:Snap ITC"
       x="2577.4983"
       y="59.959061"
       id="text4264-4-4-2"
       sodipodi:linespacing="125%"
       transform="scale(0.73369735,1.3629598)"><tspan
         sodipodi:role="line"
         id="tspan4266-0-5-1"
         x="2577.4983"
         y="59.959061">Pausas Activas</tspan></text>
    <text
       xml:space="preserve"
       style="font-size:48px;font-style:normal;font-variant:normal;font-weight:normal;font-stretch:normal;text-align:center;line-height:125%;letter-spacing:0px;word-spacing:0px;text-anchor:middle;fill:#ffffff;fill-opacity:1;stroke:none;display:inline;font-family:Microsoft Sans Serif;-inkscape-font-specification:Microsoft Sans Serif"
       x="2055.0376"
       y="154.58026"
       id="text4264-1-8-6"
       sodipodi:linespacing="125%"><tspan
         sodipodi:role="line"
         id="tspan4266-7-2-8"
         x="2055.0376"
         y="154.58026"
         style="font-size:48px;font-style:normal;font-variant:normal;font-weight:normal;font-stretch:normal;font-family:Microsoft Sans Serif;-inkscape-font-specification:Microsoft Sans Serif">Puntaje</tspan></text>
    <flowRoot
       xml:space="preserve"
       id="flowRoot3101"
       style="font-size:40px;font-style:normal;font-weight:normal;line-height:125%;letter-spacing:0px;word-spacing:0px;fill:#000000;fill-opacity:1;stroke:none;font-family:Sans"><flowRegion
         id="flowRegion3103"><rect
           id="rect3105"
           width="1528.6731"
           height="669.685"
           x="759.24774"
           y="36.639301" /></flowRegion><flowPara
         id="flowPara3107" /></flowRoot>    <g
       id="g3147"
       transform="matrix(4.3611572,0,0,5.5576151,63.549492,178.53881)">
      <path
         id="path3133"
         d="m 71.046,17.12 c 3.911,0 7.078,-3.167 7.078,-7.078 0,-3.889 -3.167,-7.055 -7.078,-7.055 -3.889,0 -7.055,3.166 -7.055,7.055 10e-4,3.912 3.167,7.078 7.055,7.078 z"
         inkscape:connector-curvature="0" />
      <path
         id="path3135"
         d="M 76.308,18.704 H 65.994 L 48.415,1.125 C 47.041,-0.318 44.76,-0.388 43.316,1.009 41.872,2.383 41.802,4.664 43.176,6.108 l 18.37,18.394 v 60.955 c 0,2.212 1.77,3.981 3.958,3.981 2.212,0 3.981,-1.77 3.981,-3.981 V 52.394 h 3.213 l 0.023,33.062 c 0,2.212 1.793,3.981 3.981,3.981 2.188,0 3.958,-1.77 3.958,-3.981 L 80.637,24.501 99.009,6.107 c 1.373,-1.444 1.303,-3.725 -0.141,-5.099 -1.443,-1.397 -3.725,-1.327 -5.099,0.116 l -17.461,17.58 z"
         inkscape:connector-curvature="0" />
      <path
         id="path3137"
         d="M 38.938,45.595 C 37.867,44.501 36.4,43.849 34.771,43.849 H 19.975 c -1.63,0 -3.097,0.652 -4.145,1.746 L 0.999,60.427 c -1.374,1.443 -1.327,3.725 0.116,5.099 1.443,1.374 3.749,1.327 5.099,-0.116 L 17.715,53.908 V 69.274 H 4.817 c -2.375,0 -4.284,1.909 -4.284,4.284 0,1.234 0.466,2.328 1.304,3.12 l 14.529,14.528 c 1.28,1.887 3.795,2.491 5.797,1.327 2.119,-1.21 2.817,-3.888 1.606,-5.983 l -8.289,-8.266 0.163,0.023 H 39.45 l -8.312,8.266 c -1.188,2.096 -0.489,4.772 1.606,5.983 2.002,1.164 4.541,0.559 5.821,-1.327 L 53.094,76.701 c 0.838,-0.792 1.303,-1.886 1.303,-3.12 0,-2.375 -1.908,-4.284 -4.284,-4.284 H 37.239 V 54.093 l 11.292,11.339 c 1.374,1.444 3.656,1.49 5.099,0.116 1.443,-1.373 1.49,-3.654 0.116,-5.099 L 38.938,45.595 z"
         inkscape:connector-curvature="0" />
      <path
         id="path3139"
         d="m 27.518,42.335 c 3.9,0 7.043,-3.166 7.043,-7.055 0,-3.911 -3.144,-7.055 -7.043,-7.055 -3.888,0 -7.055,3.144 -7.055,7.055 0,3.889 3.167,7.055 7.055,7.055 z"
         inkscape:connector-curvature="0" />
    </g>
    <flowRoot
       xml:space="preserve"
       id="flowRoot3153"
       style="font-size:40px;font-style:normal;font-weight:normal;line-height:125%;letter-spacing:0px;word-spacing:0px;fill:#000000;fill-opacity:1;stroke:none;font-family:Sans"><flowRegion
         id="flowRegion3155"><rect
           id="rect3157"
           width="0"
           height="46.816887"
           x="850.84601"
           y="315.5051" /></flowRegion><flowPara
         id="flowPara3159" /></flowRoot>    <flowRoot
       xml:space="preserve"
       id="flowRoot3161"
       style="font-size:40px;font-style:normal;font-weight:normal;line-height:125%;letter-spacing:0px;word-spacing:0px;fill:#000000;fill-opacity:1;stroke:none;font-family:Sans"><flowRegion
         id="flowRegion3163"><rect
           id="rect3165"
           width="105.84687"
           height="168.94789"
           x="795.88708"
           y="221.87132" /></flowRegion><flowPara
         id="flowPara3167" /></flowRoot>    <g
       id="g3199"
       transform="matrix(1.6431359,0,0,1.9870133,540.18602,92.214787)">
      <path
         id="path3185"
         d="m 71.046,17.12 c 3.911,0 7.078,-3.167 7.078,-7.078 0,-3.889 -3.167,-7.055 -7.078,-7.055 -3.889,0 -7.055,3.166 -7.055,7.055 10e-4,3.912 3.167,7.078 7.055,7.078 z"
         inkscape:connector-curvature="0" />
      <path
         id="path3187"
         d="M 76.308,18.704 H 65.994 L 48.415,1.125 C 47.041,-0.318 44.76,-0.388 43.316,1.009 41.872,2.383 41.802,4.664 43.176,6.108 l 18.37,18.394 v 60.955 c 0,2.212 1.77,3.981 3.958,3.981 2.212,0 3.981,-1.77 3.981,-3.981 V 52.394 h 3.213 l 0.023,33.062 c 0,2.212 1.793,3.981 3.981,3.981 2.188,0 3.958,-1.77 3.958,-3.981 L 80.637,24.501 99.009,6.107 c 1.373,-1.444 1.303,-3.725 -0.141,-5.099 -1.443,-1.397 -3.725,-1.327 -5.099,0.116 l -17.461,17.58 z"
         inkscape:connector-curvature="0" />
      <path
         id="path3189"
         d="M 38.938,45.595 C 37.867,44.501 36.4,43.849 34.771,43.849 H 19.975 c -1.63,0 -3.097,0.652 -4.145,1.746 L 0.999,60.427 c -1.374,1.443 -1.327,3.725 0.116,5.099 1.443,1.374 3.749,1.327 5.099,-0.116 L 17.715,53.908 V 69.274 H 4.817 c -2.375,0 -4.284,1.909 -4.284,4.284 0,1.234 0.466,2.328 1.304,3.12 l 14.529,14.528 c 1.28,1.887 3.795,2.491 5.797,1.327 2.119,-1.21 2.817,-3.888 1.606,-5.983 l -8.289,-8.266 0.163,0.023 H 39.45 l -8.312,8.266 c -1.188,2.096 -0.489,4.772 1.606,5.983 2.002,1.164 4.541,0.559 5.821,-1.327 L 53.094,76.701 c 0.838,-0.792 1.303,-1.886 1.303,-3.12 0,-2.375 -1.908,-4.284 -4.284,-4.284 H 37.239 V 54.093 l 11.292,11.339 c 1.374,1.444 3.656,1.49 5.099,0.116 1.443,-1.373 1.49,-3.654 0.116,-5.099 L 38.938,45.595 z"
         inkscape:connector-curvature="0" />
      <path
         id="path3191"
         d="m 27.518,42.335 c 3.9,0 7.043,-3.166 7.043,-7.055 0,-3.911 -3.144,-7.055 -7.043,-7.055 -3.888,0 -7.055,3.144 -7.055,7.055 0,3.889 3.167,7.055 7.055,7.055 z"
         inkscape:connector-curvature="0" />
      <path
         inkscape:connector-curvature="0"
         d="M 38.938,45.595 C 37.867,44.501 36.4,43.849 34.771,43.849 H 19.975 c -1.63,0 -3.097,0.652 -4.145,1.746 L 0.999,60.427 c -1.374,1.443 -1.327,3.725 0.116,5.099 1.443,1.374 3.749,1.327 5.099,-0.116 L 17.715,53.908 V 69.274 H 4.817 c -2.375,0 -4.284,1.909 -4.284,4.284 0,1.234 0.466,2.328 1.304,3.12 l 14.529,14.528 c 1.28,1.887 3.795,2.491 5.797,1.327 2.119,-1.21 2.817,-3.888 1.606,-5.983 l -8.289,-8.266 0.163,0.023 H 39.45 l -8.312,8.266 c -1.188,2.096 -0.489,4.772 1.606,5.983 2.002,1.164 4.541,0.559 5.821,-1.327 L 53.094,76.701 c 0.838,-0.792 1.303,-1.886 1.303,-3.12 0,-2.375 -1.908,-4.284 -4.284,-4.284 H 37.239 V 54.093 l 11.292,11.339 c 1.374,1.444 3.656,1.49 5.099,0.116 1.443,-1.373 1.49,-3.654 0.116,-5.099 L 38.938,45.595 z"
         id="path3245" />
    </g>
    <g
       id="g3235"
       transform="matrix(0.77608557,0,0,0.77608557,535.53075,339.33036)">
      <path
         id="path3221"
         d="m 71.046,17.12 c 3.911,0 7.078,-3.167 7.078,-7.078 0,-3.889 -3.167,-7.055 -7.078,-7.055 -3.889,0 -7.055,3.166 -7.055,7.055 10e-4,3.912 3.167,7.078 7.055,7.078 z"
         inkscape:connector-curvature="0" />
      <path
         id="path3223"
         d="M 76.308,18.704 H 65.994 L 48.415,1.125 C 47.041,-0.318 44.76,-0.388 43.316,1.009 41.872,2.383 41.802,4.664 43.176,6.108 l 18.37,18.394 v 60.955 c 0,2.212 1.77,3.981 3.958,3.981 2.212,0 3.981,-1.77 3.981,-3.981 V 52.394 h 3.213 l 0.023,33.062 c 0,2.212 1.793,3.981 3.981,3.981 2.188,0 3.958,-1.77 3.958,-3.981 L 80.637,24.501 99.009,6.107 c 1.373,-1.444 1.303,-3.725 -0.141,-5.099 -1.443,-1.397 -3.725,-1.327 -5.099,0.116 l -17.461,17.58 z"
         inkscape:connector-curvature="0" />
      <path
         id="path3225"
         d="M 38.938,45.595 C 37.867,44.501 36.4,43.849 34.771,43.849 H 19.975 c -1.63,0 -3.097,0.652 -4.145,1.746 L 0.999,60.427 c -1.374,1.443 -1.327,3.725 0.116,5.099 1.443,1.374 3.749,1.327 5.099,-0.116 L 17.715,53.908 V 69.274 H 4.817 c -2.375,0 -4.284,1.909 -4.284,4.284 0,1.234 0.466,2.328 1.304,3.12 l 14.529,14.528 c 1.28,1.887 3.795,2.491 5.797,1.327 2.119,-1.21 2.817,-3.888 1.606,-5.983 l -8.289,-8.266 0.163,0.023 H 39.45 l -8.312,8.266 c -1.188,2.096 -0.489,4.772 1.606,5.983 2.002,1.164 4.541,0.559 5.821,-1.327 L 53.094,76.701 c 0.838,-0.792 1.303,-1.886 1.303,-3.12 0,-2.375 -1.908,-4.284 -4.284,-4.284 H 37.239 V 54.093 l 11.292,11.339 c 1.374,1.444 3.656,1.49 5.099,0.116 1.443,-1.373 1.49,-3.654 0.116,-5.099 L 38.938,45.595 z"
         inkscape:connector-curvature="0" />
      <path
         id="path3227"
         d="m 27.518,42.335 c 3.9,0 7.043,-3.166 7.043,-7.055 0,-3.911 -3.144,-7.055 -7.043,-7.055 -3.888,0 -7.055,3.144 -7.055,7.055 0,3.889 3.167,7.055 7.055,7.055 z"
         inkscape:connector-curvature="0" />
    </g>
    <rect
       id="rect3241"
       width="4.0710335"
       height="30.532751"
       x="858.9881"
       y="-177.08997" />
    <path
       style="fill:#cc44b1;fill-opacity:0.99607843"
       d="m 892.27692,892.67722 c 66.83006,-0.36911 176.18838,-0.36911 243.01838,0 66.8301,0.3691 12.1509,0.6711 -121.5092,0.6711 -133.6601,0 -188.33924,-0.302 -121.50918,-0.6711 z"
       id="path3169"
       inkscape:connector-curvature="0" />
    <path
       style="fill:#cc44b1;fill-opacity:0.99607843"
       d=""
       id="path3175"
       inkscape:connector-curvature="0" />
    <path
       style="fill:#cc44b1;fill-opacity:0.99607843"
       d=""
       id="path3177"
       inkscape:connector-curvature="0" />
    <path
       style="fill:#cc44b1;fill-opacity:0.99607843"
       d=""
       id="path3179"
       inkscape:connector-curvature="0" />
    <path
       style="fill:#cc44b1;fill-opacity:0.99607843"
       d="m 978.89118,862.14358 c -3.09594,-2.00074 -2.88167,-2.41616 1.24624,-2.41616 2.74175,0 6.66743,1.08727 8.72374,2.41616 3.09593,2.00075 2.88166,2.41617 -1.24625,2.41617 -2.74174,0 -6.66743,-1.08728 -8.72373,-2.41617 z"
       id="path3181"
       inkscape:connector-curvature="0" />
    <path
       style="fill:#cc44b1;fill-opacity:0.99607843"
       d=""
       id="path3183"
       inkscape:connector-curvature="0" />
    <path
       style="fill:#cc44b1;fill-opacity:0.99607843"
       d=""
       id="path3190"
       inkscape:connector-curvature="0" />
    <rect
       style="fill:#006680;fill-opacity:1"
       id="rect3214"
       width="411.2619"
       height="94.714867"
       x="809.83673"
       y="222.98055" />
    <flowRoot
       xml:space="preserve"
       id="flowRoot3228"
       style="font-size:40px;font-style:normal;font-weight:normal;line-height:125%;letter-spacing:0px;word-spacing:0px;fill:#ffffff;fill-opacity:1;stroke:none;font-family:Microsoft Sans Serif;-inkscape-font-specification:Microsoft Sans Serif;font-stretch:normal;font-variant:normal;text-anchor:start;text-align:start;writing-mode:lr"
       transform="translate(24.748932,-40.519089)"><flowRegion
         id="flowRegion3230"><rect
           id="rect3232"
           width="316.54703"
           height="67.297401"
           x="849.94128"
           y="287.16577"
           style="fill:#ffffff;-inkscape-font-specification:Microsoft Sans Serif;font-family:Microsoft Sans Serif;font-weight:normal;font-style:normal;font-stretch:normal;font-variant:normal;font-size:40px;text-anchor:start;text-align:start;writing-mode:lr;line-height:125%"
           ry="0" /></flowRegion><flowPara
         id="flowPara3234">Tipo de Usuario</flowPara></flowRoot>    <path
       style="fill:#d567c0;fill-opacity:0.99607843"
       d=""
       id="path3242"
       inkscape:connector-curvature="0" />
    <path
       style="fill:#d567c0;fill-opacity:0.99607843"
       d=""
       id="path3244"
       inkscape:connector-curvature="0" />
    <path
       style="fill:#d567c0;fill-opacity:0.99607843"
       d="m 911.3925,862.532 c 0.90242,-0.36512 2.70184,-0.38734 3.99871,-0.0494 1.29687,0.33795 0.55853,0.63667 -1.64076,0.66384 -2.19929,0.0272 -3.26037,-0.24934 -2.35795,-0.61445 z"
       id="path3282"
       inkscape:connector-curvature="0" />
    <path
       style="fill:#d567c0;fill-opacity:0.99607843"
       d=""
       id="path3284"
       inkscape:connector-curvature="0" />
    <path
       style="fill:#d567c0;fill-opacity:0.99607843"
       d="m 1052.6804,862.532 c 0.9024,-0.36512 2.7018,-0.38734 3.9987,-0.0494 1.2968,0.33795 0.5585,0.63667 -1.6408,0.66384 -2.1993,0.0272 -3.2604,-0.24934 -2.3579,-0.61445 z"
       id="path3288"
       inkscape:connector-curvature="0" />
    <rect
       style="opacity:0.96000001000000001;fill:#0088aa;fill-opacity:0.92156863000000000"
       id="rect3696"
       width="474.46539"
       height="92.428619"
       x="776.92175"
       y="798.46942" />
    <path
       sodipodi:type="arc"
       style="opacity:0.96000001000000001;fill:#004455;fill-opacity:0.92156863000000000"
       id="path3714"
       sodipodi:cx="1607.2916"
       sodipodi:cy="542.98718"
       sodipodi:rx="36.458332"
       sodipodi:ry="38.541668"
       d="m 1643.75,542.98718 a 36.458332,38.541668 0 1 1 -72.9167,0 36.458332,38.541668 0 1 1 72.9167,0 z"
       transform="translate(-676.19917,303.70845)" />
    <path
       sodipodi:type="arc"
       style="opacity:0.96000001000000001;fill:#004455;fill-opacity:0.92156863000000000;display:inline"
       id="path3714-1"
       sodipodi:cx="1607.2916"
       sodipodi:cy="542.98718"
       sodipodi:rx="36.458332"
       sodipodi:ry="38.541668"
       d="m 1643.75,542.98718 a 36.458332,38.541668 0 1 1 -72.9167,0 36.458332,38.541668 0 1 1 72.9167,0 z"
       transform="translate(-547.13718,301.69655)" />
    <rect
       style="opacity:0.96000001000000001;fill:#00aad4;fill-opacity:1;display:inline"
       id="rect3111-0-7"
       width="494.95496"
       height="800"
       x="1277.2637"
       y="92.874352" />
    <rect
       style="opacity:0.96000001000000001;fill:#00aad4;fill-opacity:1;display:inline"
       id="rect3111-0-4"
       width="494.95496"
       height="800"
       x="1788.2186"
       y="92.874352" />
    <text
       xml:space="preserve"
       style="font-size:17.80608558999999900px;font-style:normal;font-variant:normal;font-weight:bold;font-stretch:normal;text-align:center;line-height:125%;letter-spacing:0px;word-spacing:0px;text-anchor:middle;fill:#ffffff;fill-opacity:1;stroke:none;display:inline;font-family:Microsoft New Tai Lue;-inkscape-font-specification:Microsoft New Tai Lue Bold"
       x="1847.3146"
       y="98.049133"
       id="text4264-4-0"
       sodipodi:linespacing="125%"
       transform="scale(0.73369735,1.3629598)"><tspan
         sodipodi:role="line"
         id="tspan4266-0-9"
         x="1847.3146"
         y="98.049133">Pausas Activas</tspan></text>
    <text
       xml:space="preserve"
       style="font-size:17.80608558999999900px;font-style:normal;font-variant:normal;font-weight:bold;font-stretch:normal;text-align:center;line-height:125%;letter-spacing:0px;word-spacing:0px;text-anchor:middle;fill:#ffffff;fill-opacity:1;stroke:none;display:inline;font-family:Microsoft New Tai Lue;-inkscape-font-specification:Microsoft New Tai Lue Bold"
       x="2571.6843"
       y="102.90578"
       id="text4264-4-0-4"
       sodipodi:linespacing="125%"
       transform="scale(0.73369735,1.3629598)"><tspan
         sodipodi:role="line"
         id="tspan4266-0-9-8"
         x="2571.6843"
         y="102.90578">Pausas Activas</tspan></text>
    <rect
       style="fill:#006680;fill-opacity:1;display:inline"
       id="rect3214-8"
       width="411.2619"
       height="86.381531"
       x="1319.1102"
       y="398.15948" />
    <text
       xml:space="preserve"
       style="font-size:40px;font-style:normal;font-weight:normal;text-align:center;line-height:125%;letter-spacing:0px;word-spacing:0px;text-anchor:middle;fill:#ffffff;fill-opacity:1;stroke:none;font-family:Sans"
       x="1524.0283"
       y="455.62433"
       id="text3821"
       sodipodi:linespacing="125%"><tspan
         sodipodi:role="line"
         id="tspan3823"
         x="1524.0283"
         y="455.62433">Mostrar Ejercicios</tspan></text>
    <rect
       style="fill:#006680;fill-opacity:1;display:inline"
       id="rect3214-8-2"
       width="411.2619"
       height="67.631531"
       x="1312.2335"
       y="189.923" />
    <text
       xml:space="preserve"
       style="font-size:40px;font-style:normal;font-weight:normal;text-align:center;line-height:125%;letter-spacing:0px;word-spacing:0px;text-anchor:middle;fill:#ffffff;fill-opacity:1;stroke:none;font-family:Sans"
       x="1517.8645"
       y="237.28044"
       id="text3843"
       sodipodi:linespacing="125%"><tspan
         sodipodi:role="line"
         id="tspan3845"
         x="1517.8645"
         y="237.28044">Es hora de tu pausa</tspan></text>
    <rect
       style="opacity:0.96000001;fill:#00222b;fill-opacity:0.92156863;display:inline"
       id="rect3185-45"
       width="477.23965"
       height="6.2384272"
       x="1288.7743"
       y="785.98102" />
    <rect
       style="opacity:0.96000001;fill:#00222b;fill-opacity:0.92156863;display:inline"
       id="rect3185-5"
       width="477.23965"
       height="6.2384272"
       x="1794.0139"
       y="782.86182" />
    <rect
       style="opacity:0.96000001;fill:#0088aa;fill-opacity:0.92156863;display:inline"
       id="rect3696-1"
       width="474.46539"
       height="92.428619"
       x="1287.5084"
       y="798.44574" />
    <rect
       style="opacity:0.96000001;fill:#0088aa;fill-opacity:0.92156863;display:inline"
       id="rect3696-7"
       width="474.46539"
       height="92.428619"
       x="1796.4634"
       y="796.44574" />
    <path
       sodipodi:type="arc"
       style="opacity:0.96000001;fill:#004455;fill-opacity:0.92156863;display:inline"
       id="path3714-11"
       sodipodi:cx="1607.2916"
       sodipodi:cy="542.98718"
       sodipodi:rx="36.458332"
       sodipodi:ry="38.541668"
       d="m 1643.75,542.98718 a 36.458332,38.541668 0 1 1 -72.9167,0 36.458332,38.541668 0 1 1 72.9167,0 z"
       transform="translate(-259.32487,303.67287)" />
    <path
       sodipodi:type="arc"
       style="opacity:0.96000001;fill:#004455;fill-opacity:0.92156863;display:inline"
       id="path3714-5"
       sodipodi:cx="1607.2916"
       sodipodi:cy="542.98718"
       sodipodi:rx="36.458332"
       sodipodi:ry="38.541668"
       d="m 1643.75,542.98718 a 36.458332,38.541668 0 1 1 -72.9167,0 36.458332,38.541668 0 1 1 72.9167,0 z"
       transform="translate(-12.958293,304.875)" />
    <path
       sodipodi:type="arc"
       style="opacity:0.96000001;fill:#004455;fill-opacity:0.92156863;display:inline"
       id="path3714-2"
       sodipodi:cx="1607.2916"
       sodipodi:cy="542.98718"
       sodipodi:rx="36.458332"
       sodipodi:ry="38.541668"
       d="m 1643.75,542.98718 a 36.458332,38.541668 0 1 1 -72.9167,0 36.458332,38.541668 0 1 1 72.9167,0 z"
       transform="translate(104.22386,303.67287)" />
    <path
       sodipodi:type="arc"
       style="opacity:0.96000001;fill:#004455;fill-opacity:0.92156863;display:inline"
       id="path3714-11-7"
       sodipodi:cx="1607.2916"
       sodipodi:cy="542.98718"
       sodipodi:rx="36.458332"
       sodipodi:ry="38.541668"
       d="m 1643.75,542.98718 a 36.458332,38.541668 0 1 1 -72.9167,0 36.458332,38.541668 0 1 1 72.9167,0 z"
       transform="translate(-137.00884,303.67287)" />
    <rect
       style="fill:#006680;fill-opacity:1;display:inline"
       id="rect3214-8-6"
       width="411.2619"
       height="86.381531"
       x="1833.9524"
       y="348.75473" />
    <text
       xml:space="preserve"
       style="font-size:48.68582915999999700px;font-style:normal;font-weight:normal;text-align:center;line-height:125%;letter-spacing:0px;word-spacing:0px;text-anchor:middle;fill:#ffffff;fill-opacity:1;stroke:none;font-family:Sans"
       x="2383.6094"
       y="352.8681"
       id="text3976"
       sodipodi:linespacing="125%"
       transform="scale(0.85584082,1.1684416)"><tspan
         sodipodi:role="line"
         id="tspan3978"
         x="2383.6094"
         y="352.8681">Calificacion</tspan></text>
    <path
       sodipodi:type="arc"
       style="opacity:0.96000001;fill:#004455;fill-opacity:0.92156863;display:inline"
       id="path3714-2-1"
       sodipodi:cx="1607.2916"
       sodipodi:cy="542.98718"
       sodipodi:rx="36.458332"
       sodipodi:ry="38.541668"
       d="m 1643.75,542.98718 a 36.458332,38.541668 0 1 1 -72.9167,0 36.458332,38.541668 0 1 1 72.9167,0 z"
       transform="translate(410.40445,303.67287)" />
  </g>
</svg>
